<svg width="31" height="36" viewBox="0 0 31 36" fill="none" xmlns="http://www.w3.org/2000/svg">
<path d="M19.7152 0.742188C27.0607 0.742188 30.7334 3.66304 30.7334 9.50475C30.7334 13.1486 28.9983 15.9248 25.528 17.8335C22.1155 19.6844 17.2281 20.6387 10.8659 20.6965C10.7502 22.7787 10.6923 24.4271 10.6923 25.6417C10.6923 28.2445 11.2707 30.1821 12.4275 31.4545C13.6421 32.6691 15.1459 33.2764 16.9389 33.2764C18.7319 33.2764 20.3514 32.9294 21.7974 32.2353C23.3012 31.5413 24.4869 30.7315 25.3544 29.8061C26.222 28.8229 26.9739 27.8107 27.6101 26.7696C28.7669 24.8609 29.3453 23.6463 29.3453 23.1258L30.907 23.8198C30.7334 24.7452 30.2129 25.9888 29.3453 27.5504C28.4777 29.0542 27.5234 30.2978 26.4823 31.281C25.4412 32.2643 23.9085 33.1897 21.8841 34.0573C19.8598 34.867 17.6041 35.2719 15.117 35.2719C10.4321 35.2719 6.87497 34.1729 4.44575 31.9751C2.07436 29.7194 0.888672 26.6539 0.888672 22.7787C0.888672 15.8959 2.59492 10.5169 6.0074 6.64174C9.41988 2.70871 13.9891 0.742188 19.7152 0.742188ZM28.5645 9.50475C28.5645 7.59607 27.9861 6.03443 26.8293 4.81982C25.7304 3.54737 24.0531 2.91114 21.7974 2.91114C19.5995 2.91114 17.4305 4.24143 15.2905 6.90201C13.2083 9.56259 11.8202 13.4956 11.1261 18.7011C22.7517 18.6433 28.5645 15.5778 28.5645 9.50475Z" fill="#202020"/>
</svg>
