<svg width="1287" height="157" viewBox="0 0 1287 157" fill="none" xmlns="http://www.w3.org/2000/svg">
<path d="M43.1664 146.557L43.8774 145.704L43.0101 145.01L39.5601 142.25L38.71 141.57L38.0299 142.42C35.4666 145.624 32.3734 147.549 28.7228 148.247L44.321 62.7955L44.6133 61.1944L43.0219 61.5354L39.824 62.2207C34.5524 63.1217 26.2804 63.5813 14.96 63.5813H5.07H4.09555L3.98794 64.5498L3.52794 68.6898L3.39361 69.8987H4.61H12.9622L5.60932 109.783L5.60763 109.792L5.60609 109.801C4.379 117.164 3.45767 122.941 2.84282 127.129C2.23428 131.275 1.91128 133.955 1.91128 135.05C1.91128 140.997 3.93407 145.899 8.01287 149.651L8.02069 149.658L8.02864 149.665C12.2675 153.415 17.9949 155.229 25.08 155.229C32.3182 155.229 38.3694 152.313 43.1664 146.557ZM16.1713 28.79C16.1713 33.6754 17.8937 37.8633 21.3202 41.2898C24.7467 44.7163 28.9345 46.4387 33.82 46.4387C38.7012 46.4387 42.8861 44.7193 46.3109 41.2988C49.89 37.8782 51.6987 33.688 51.6987 28.79C51.6987 23.8962 49.8931 19.709 46.32 16.29C42.901 12.7169 38.7138 10.9113 33.82 10.9113C28.922 10.9113 24.7318 12.72 21.3112 16.2991C17.8907 19.7239 16.1713 23.9088 16.1713 28.79Z" stroke="#F2F2F2" stroke-width="2.17744"/>
<path d="M130.703 148.342C135.681 121.421 140.658 92.3512 145.635 61.1328C148.242 45.1857 150.217 32.7227 151.559 23.746C152.705 16.0872 153.399 10.9143 153.624 8.28777C156.394 8.61666 158.815 10.3296 160.883 13.6906L160.891 13.7033L160.899 13.7158C163.372 17.4986 164.631 22.0372 164.631 27.38C164.631 36.2055 161.48 48.1565 155.058 63.294C148.608 78.3454 145.311 90.0916 145.311 98.45V99.5387H146.4H150.54H151.629V98.45C151.629 91.48 154.767 80.2354 161.205 64.5985C167.808 48.9348 171.179 36.7313 171.179 28.07C171.179 19.5101 169.316 12.9162 165.391 8.49529C161.655 4.11409 156.83 1.91128 151 1.91128C142.681 1.91128 135.923 5.29481 130.814 12.0002L130.809 12.0068L130.804 12.0135C125.897 18.6612 122.106 29.6762 119.339 44.8952L119.339 44.8965L104.389 127.697L104.382 127.733L104.378 127.77C104.071 130.533 103.911 132.578 103.911 133.87C103.911 140.537 105.904 145.841 110.013 149.621C114.06 153.345 119.005 155.199 124.78 155.199C130.427 155.199 135.094 154.103 138.696 151.814C142.305 149.616 145.173 147.157 147.265 144.421C149.319 141.736 151.273 138.367 153.135 134.334C155.132 130.186 156.406 126.947 156.895 124.668L157.08 123.804L156.272 123.445L152.132 121.605L151.069 121.132L150.668 122.225L148.138 129.125L148.134 129.135L148.131 129.145C146.648 133.444 144.116 137.778 140.501 142.146C137.359 145.942 134.094 147.935 130.703 148.342Z" stroke="#F2F2F2" stroke-width="2.17744"/>
<path d="M212.166 146.557L212.877 145.704L212.01 145.01L208.56 142.25L207.71 141.57L207.03 142.42C204.467 145.624 201.373 147.549 197.723 148.247L213.321 62.7955L213.613 61.1944L212.022 61.5354L208.824 62.2207C203.552 63.1217 195.28 63.5813 183.96 63.5813H174.07H173.096L172.988 64.5498L172.528 68.6898L172.394 69.8987H173.61H181.962L174.609 109.783L174.608 109.792L174.606 109.801C173.379 117.164 172.458 122.941 171.843 127.129C171.234 131.275 170.911 133.955 170.911 135.05C170.911 140.997 172.934 145.899 177.013 149.651L177.021 149.658L177.029 149.665C181.267 153.415 186.995 155.229 194.08 155.229C201.318 155.229 207.369 152.313 212.166 146.557ZM185.171 28.79C185.171 33.6754 186.894 37.8633 190.32 41.2898C193.747 44.7163 197.935 46.4387 202.82 46.4387C207.701 46.4387 211.886 44.7193 215.311 41.2988C218.89 37.8782 220.699 33.688 220.699 28.79C220.699 23.8962 218.893 19.709 215.32 16.29C211.901 12.7169 207.714 10.9113 202.82 10.9113C197.922 10.9113 193.732 12.72 190.311 16.2991C186.891 19.7239 185.171 23.9088 185.171 28.79Z" stroke="#F2F2F2" stroke-width="2.17744"/>
<path d="M257.65 107.65L249.37 152.04H222L247.99 7.6C243.39 8.06 239.557 10.2067 236.49 14.04L233.04 11.28C237.64 5.76 243.39 3 250.29 3C257.343 3 262.787 4.76333 266.62 8.29C270.453 11.8167 272.37 16.8 272.37 23.24C272.37 24.4667 272.217 26.46 271.91 29.22C268.383 48.6933 264.55 69.7 260.41 92.24C264.243 82.8867 269.763 75.6033 276.97 70.39C284.177 65.1767 291.843 62.57 299.97 62.57C308.097 62.57 313.77 64.18 316.99 67.4C320.363 70.62 322.05 74.6833 322.05 79.59C322.05 84.3433 320.593 88.2533 317.68 91.32C314.767 94.3867 310.933 95.92 306.18 95.92C301.58 95.92 297.977 94.6167 295.37 92.01C292.917 89.25 291.69 85.2633 291.69 80.05C291.69 74.6833 293.53 70.62 297.21 67.86C282.49 69.5467 270.76 80.4333 262.02 100.52C264.167 100.213 266.007 100.06 267.54 100.06C275.667 100.06 282.03 101.67 286.63 104.89C291.383 108.11 294.45 112.097 295.83 116.85C297.21 121.45 298.207 126.127 298.82 130.88C299.433 135.48 300.43 139.39 301.81 142.61C303.19 145.83 305.643 147.44 309.17 147.44C312.697 147.44 315.457 145.983 317.45 143.07L320.9 145.83C319.827 147.977 317.45 149.893 313.77 151.58C310.09 153.267 305.337 154.11 299.51 154.11C293.837 154.11 288.777 152.653 284.33 149.74C280.037 146.827 277.047 143.223 275.36 138.93C273.673 134.483 272.293 130.113 271.22 125.82C268.307 114.78 263.783 108.723 257.65 107.65Z" fill="#F2F2F2"/>
<path d="M398.839 108.267L398.845 108.264C403.574 105.663 407.176 102.44 409.593 98.572C412.013 94.6999 413.209 90.2403 413.209 85.23C413.209 77.2441 410.686 71.0835 405.495 66.9554C400.352 62.8652 392.762 60.9113 382.91 60.9113C367.451 60.9113 355.026 66.235 345.75 76.9234C336.479 87.4535 331.911 102 331.911 120.42C331.911 130.932 335.137 139.366 341.68 145.589L341.689 145.598L341.7 145.607C348.411 151.68 358.145 154.629 370.72 154.629C377.433 154.629 383.552 153.536 389.064 151.331L389.077 151.326L389.089 151.321C394.517 148.994 398.708 146.48 401.598 143.752C404.449 141.059 407.041 137.674 409.383 133.614L409.387 133.606L409.392 133.599C411.707 129.431 413.157 126.01 413.65 123.381L413.809 122.535L413.022 122.185L408.882 120.345L407.351 119.665V121.34C407.351 121.512 407.298 121.841 407.12 122.376C406.947 122.894 406.679 123.54 406.307 124.322C405.563 125.884 404.435 127.918 402.91 130.434C401.262 133.131 399.311 135.759 397.055 138.317C394.876 140.637 391.864 142.706 387.974 144.501L387.966 144.505L387.959 144.508C384.289 146.27 380.16 147.161 375.55 147.161C371.08 147.161 367.381 145.662 364.378 142.669C361.579 139.576 360.079 134.76 360.079 128.01C360.079 125.018 360.212 121.009 360.482 115.976C376.934 115.731 389.754 113.195 398.839 108.267ZM400.946 73.5216L400.963 73.5417L400.982 73.5608C403.829 76.5501 405.281 80.4079 405.281 85.23C405.281 89.0739 404.364 92.3926 402.562 95.2257C400.757 98.0633 398.025 100.475 394.305 102.437C387.037 106.27 376.106 108.33 361.391 108.51C363.269 95.4333 366.847 85.6365 372.033 79.0068C377.613 72.0707 383.083 68.8387 388.43 68.8387C394.208 68.8387 398.304 70.4624 400.946 73.5216Z" stroke="#F2F2F2" stroke-width="2.17744"/>
<path d="M603.41 96.4387C607.984 96.4387 611.88 94.8954 615.046 91.8409C615.151 92.8272 615.201 93.6111 615.201 94.2C615.201 107.925 611.21 120.273 603.22 131.278C595.225 142.138 586.317 147.391 576.5 147.391C572.635 147.391 569.748 146.12 567.688 143.657C565.743 141.148 564.709 137.659 564.709 133.07C564.709 128.318 566.206 120.084 569.274 108.274L569.275 108.27C572.344 96.3005 573.909 87.3702 573.909 81.55C573.909 75.6348 572.062 70.6803 568.324 66.7754C564.717 62.8446 559.888 60.9113 553.96 60.9113C548.153 60.9113 543.205 62.0096 539.168 64.2701L539.16 64.2748L539.151 64.2796C537.293 65.3637 535.763 66.3432 534.571 67.2171C533.395 68.0792 532.487 68.8833 531.929 69.6268C530.987 70.8829 530.256 72.0138 529.756 73.0131L529.363 73.8003L530.05 74.3502L533.5 77.1101L534.406 77.8353L535.072 76.8843L536.682 74.5843C537.65 73.2016 539.218 71.7566 541.454 70.2659L541.474 70.2524L541.494 70.238C543.251 68.9494 545.022 68.1602 546.814 67.8363C546.371 73.9489 544.806 82.4859 542.093 93.4792L542.091 93.4891C539.328 105.155 537.921 113.922 537.921 119.73C537.921 125.274 538.712 130.215 540.318 134.533C534.244 143.204 527.065 147.391 518.77 147.391C514.905 147.391 512.018 146.12 509.958 143.657C508.013 141.148 506.979 137.659 506.979 133.07C506.979 128.318 508.476 120.084 511.544 108.274L511.545 108.27C514.614 96.3005 516.179 87.3702 516.179 81.55C516.179 75.6348 514.332 70.6803 510.594 66.7754C506.987 62.8446 502.158 60.9113 496.23 60.9113C490.423 60.9113 485.475 62.0096 481.438 64.2701L481.43 64.2748L481.421 64.2796C479.563 65.3637 478.033 66.3432 476.841 67.2171C475.665 68.0792 474.757 68.8833 474.199 69.6268C473.257 70.8829 472.526 72.0138 472.026 73.0131L471.633 73.8003L472.32 74.3502L475.77 77.1101L476.676 77.8353L477.342 76.8843L478.952 74.5843C479.92 73.2016 481.488 71.7566 483.724 70.2659L483.744 70.2524L483.764 70.238C485.521 68.9494 487.292 68.1602 489.084 67.8363C488.641 73.9489 487.076 82.4859 484.363 93.4792L484.363 93.4792L484.361 93.4891C481.59 105.188 480.191 115.091 480.191 123.18C480.191 131.469 483.392 138.792 489.71 145.11L489.71 145.11L489.72 145.119C496.234 151.475 504.569 154.629 514.63 154.629C527.129 154.629 537.185 150.419 544.686 141.96C551.041 150.427 560.321 154.629 572.36 154.629C579.709 154.629 586.387 153.221 592.376 150.384L592.376 150.384L592.387 150.379C598.48 147.41 603.368 143.717 607.011 139.281L607.017 139.274L607.023 139.267C610.61 134.744 613.647 129.681 616.135 124.082C618.616 118.5 620.332 113.206 621.27 108.201C622.206 103.208 622.669 97.2338 622.669 90.29C622.669 83.288 621.775 77.6634 619.909 73.4942C619.907 73.0723 619.739 72.729 619.537 72.4697C618.225 69.1309 616.045 66.4155 613.022 64.3402C610.042 62.0326 606.353 60.9113 602.03 60.9113C597.699 60.9113 593.827 62.7562 590.441 66.299C587.021 69.7239 585.301 73.9088 585.301 78.79C585.301 83.6755 587.024 87.8633 590.45 91.2898C593.891 94.7309 598.239 96.4387 603.41 96.4387Z" stroke="#F2F2F2" stroke-width="2.17744"/>
<path d="M643.88 14.7201C646.446 11.5134 649.542 9.58772 653.196 8.89149L627.928 151.85L627.702 153.129H629H656.6H657.514L657.672 152.228L665.255 109.028C668.302 97.0072 672.167 87.5696 676.818 80.665C681.653 73.7176 686.427 70.5587 691.1 70.5587C694.062 70.5587 696.087 71.3327 697.385 72.6938C698.692 74.0646 699.441 76.2185 699.441 79.36C699.441 83.5253 698.087 92.4614 695.322 106.286C692.564 120.079 691.161 129.761 691.161 135.25C691.161 141.735 692.966 146.791 696.754 150.204C700.52 153.598 706.062 155.199 713.18 155.199C717.768 155.199 721.988 154.328 725.824 152.57C729.588 150.844 732.236 148.793 733.474 146.317L733.867 145.53L733.18 144.98L729.73 142.22L728.94 141.588L728.252 142.329C724.811 146.035 721.63 147.945 718.705 148.342C719.133 141.706 720.706 132.063 723.444 119.38L723.445 119.377C726.354 105.748 727.839 96.4368 727.839 91.55C727.839 82.2981 725.246 74.94 719.935 69.6258C714.623 64.1559 707.261 61.4813 698 61.4813C691.201 61.4813 685.241 63.304 680.169 66.9783C676.698 69.4929 673.673 72.852 671.083 77.0302L679.522 29.41L679.528 29.3753L679.532 29.3402C679.839 26.5773 679.999 24.532 679.999 23.24C679.999 16.5728 678.006 11.2687 673.897 7.48878C669.801 3.72008 664.058 1.91128 656.83 1.91128C649.592 1.91128 643.541 4.8266 638.744 10.583L638.033 11.4363L638.9 12.1301L642.35 14.8901L643.2 15.5703L643.88 14.7201Z" stroke="#F2F2F2" stroke-width="2.17744"/>
<path d="M777.58 154.629C787.569 154.629 795.867 149.282 802.494 138.951C803.478 143.625 805.583 147.326 808.869 149.962C812.81 153.123 818.3 154.629 825.19 154.629C832.428 154.629 838.479 151.713 843.276 145.957L843.987 145.104L843.12 144.41L839.67 141.65L838.82 140.97L838.14 141.82C835.577 145.024 832.483 146.949 828.833 147.647L844.431 62.1955L844.728 60.5669L843.115 60.9392L840.158 61.6216C834.73 62.5225 826.382 62.9813 815.07 62.9813H814.177L814.002 63.8565C813.329 67.2249 812.696 70.5934 812.104 73.9619C810.287 70.2151 807.87 67.2406 804.834 65.0803C800.893 62.277 796.001 60.9113 790.23 60.9113C776.28 60.9113 764.857 66.0226 756.055 76.2394C747.249 86.4608 742.911 100.466 742.911 118.12C742.911 129.509 745.958 138.548 752.181 145.09L752.191 145.1L752.2 145.11C758.575 151.485 767.075 154.629 777.58 154.629ZM791.289 141.512L791.285 141.515C787.555 145.395 784.063 147.161 780.8 147.161C777.426 147.161 775.033 145.993 773.43 143.742C771.925 141.253 771.079 136.702 771.079 129.85C771.079 115.4 773.36 101.567 777.919 88.3449L777.92 88.3413C780.197 81.6628 782.802 76.7569 785.693 73.5373C788.561 70.3423 791.676 68.8387 795.06 68.8387C798.74 68.8387 801.881 70.7138 804.494 74.7787C807.121 78.8655 808.68 83.6997 809.143 89.3125C808.227 94.2016 807.085 100.443 805.719 108.037L805.717 108.046L805.716 108.055C804.502 115.486 803.67 120.176 803.216 122.171C800.196 129.999 796.215 136.436 791.289 141.512Z" stroke="#F2F2F2" stroke-width="2.17744"/>
<path d="M858 69.3387H867.963C864.937 85.8455 862.656 99.172 861.121 109.315C859.551 119.692 858.751 126.805 858.751 130.58C858.751 138.063 861.314 144.058 866.498 148.432L866.506 148.439L866.513 148.445C871.645 152.614 878.033 154.669 885.6 154.669C894.77 154.669 902.437 151.533 908.52 145.252C914.572 139.002 918.988 129.708 921.85 117.488L922.076 116.521L921.134 116.207L916.994 114.827L915.868 114.452L915.591 115.606C913.78 123.152 910.763 130.167 906.538 136.656C902.337 143.107 897.873 146.051 893.19 146.051C890.735 146.051 889.097 145.472 888.071 144.507C887.058 143.554 886.459 142.048 886.459 139.78C886.459 135.818 887.401 127.911 889.32 115.975C891.205 104.248 894.021 88.7034 897.768 69.3387H925.62H926.594L926.702 68.3702L927.162 64.2302L927.296 63.0213H926.08H898.882C901.389 50.1984 903.681 38.5959 905.758 28.2135L906.088 26.56L904.445 26.9392L901.488 27.6216C896.06 28.5225 887.712 28.9813 876.4 28.9813H875.492L875.329 29.8746L869.282 63.0213H858.46H857.486L857.378 63.9898L856.918 68.1298L856.784 69.3387H858Z" stroke="#F2F2F2" stroke-width="2.17744"/>
<path d="M1022.17 146.557L1022.88 145.704L1022.01 145.01L1018.56 142.25L1017.71 141.57L1017.03 142.42C1014.47 145.624 1011.37 147.549 1007.72 148.247L1023.32 62.7955L1023.61 61.1944L1022.02 61.5354L1018.82 62.2207C1013.55 63.1217 1005.28 63.5813 993.96 63.5813H984.07H983.096L982.988 64.5498L982.528 68.6898L982.394 69.8987H983.61H991.962L984.609 109.783L984.608 109.792L984.606 109.801C983.379 117.164 982.458 122.941 981.843 127.129C981.234 131.275 980.911 133.955 980.911 135.05C980.911 140.997 982.934 145.899 987.013 149.651L987.021 149.658L987.029 149.665C991.267 153.415 996.995 155.229 1004.08 155.229C1011.32 155.229 1017.37 152.313 1022.17 146.557ZM995.171 28.79C995.171 33.6754 996.894 37.8633 1000.32 41.2898C1003.75 44.7163 1007.93 46.4387 1012.82 46.4387C1017.7 46.4387 1021.89 44.7193 1025.31 41.2988C1028.89 37.8782 1030.7 33.688 1030.7 28.79C1030.7 23.8962 1028.89 19.709 1025.32 16.29C1021.9 12.7169 1017.71 10.9113 1012.82 10.9113C1007.92 10.9113 1003.73 12.72 1000.31 16.2991C996.891 19.7239 995.171 23.9088 995.171 28.79Z" stroke="#F2F2F2" stroke-width="2.17744"/>
<path d="M1114.2 155.199C1124.32 155.199 1132.7 149.998 1139.34 139.912C1140.33 144.474 1142.44 148.086 1145.73 150.655C1149.67 153.734 1155.16 155.199 1162.04 155.199C1169.28 155.199 1175.33 152.283 1180.13 146.527L1180.84 145.674L1179.97 144.98L1176.52 142.22L1175.67 141.54L1174.99 142.39C1172.43 145.593 1169.34 147.518 1165.69 148.216C1172.65 110.63 1179.85 71.0286 1187.26 29.411L1187.27 29.3758L1187.27 29.3402C1187.58 26.5773 1187.74 24.532 1187.74 23.24C1187.74 16.5728 1185.75 11.2687 1181.64 7.48878C1177.54 3.72008 1171.8 1.91128 1164.57 1.91128C1157.33 1.91128 1151.28 4.8266 1146.48 10.583L1145.77 11.4363L1146.64 12.1301L1150.09 14.8901L1150.94 15.5703L1151.62 14.7201C1154.18 11.5165 1157.28 9.59147 1160.93 8.89352L1149.34 71.9835C1148.77 71.1053 1148.08 70.1249 1147.27 69.0468L1147.24 69.0071L1147.21 68.9702C1142.66 63.9389 1136.28 61.4813 1128.23 61.4813C1114.26 61.4813 1102.84 66.8371 1094.04 77.5179C1085.25 88.1969 1080.91 102.73 1080.91 120.99C1080.91 131.462 1083.73 139.878 1089.48 146.109L1089.49 146.119C1095.27 152.222 1103.57 155.199 1114.2 155.199ZM1132.61 136.728L1132.59 136.747L1132.58 136.766C1130.66 140.024 1128.3 142.671 1125.51 144.724C1122.76 146.75 1119.92 147.731 1116.96 147.731C1114.28 147.731 1112.34 146.633 1111.01 144.379C1110.41 143.236 1109.92 141.525 1109.59 139.179C1109.25 136.831 1109.08 133.916 1109.08 130.42C1109.08 117.043 1111.21 103.195 1115.47 88.8708C1117.61 81.6996 1119.8 76.4077 1122.02 72.9308C1124.27 69.4084 1126.36 68.0287 1128.23 68.0287C1135.08 68.0287 1139.65 70.0307 1142.29 73.7765L1142.3 73.7845L1142.3 73.7924C1145.07 77.5763 1146.6 81.7801 1146.91 86.4261L1140.29 122.533C1138.79 126.403 1136.24 131.131 1132.61 136.728Z" stroke="#F2F2F2" stroke-width="2.17744"/>
<path d="M1202.44 145.58L1202.44 145.58L1202.45 145.589C1208.85 151.673 1218.14 154.629 1230.11 154.629C1247.82 154.629 1261.5 149.18 1270.95 138.151C1280.51 127.178 1285.25 112.799 1285.25 95.12C1285.25 84.6142 1282.03 76.2532 1275.48 70.1808C1269.09 63.9539 1260.12 60.9113 1248.74 60.9113C1237.6 60.9113 1228.16 62.6129 1220.46 66.0668L1220.46 66.0668L1220.46 66.0703C1212.93 69.5182 1207.24 74.3262 1203.43 80.5139C1199.69 86.4301 1196.96 92.6643 1195.25 99.2142L1195.24 99.2231L1195.24 99.232C1193.68 105.629 1192.91 113.388 1192.91 122.49C1192.91 131.664 1196.09 139.386 1202.44 145.58ZM1248.67 129.398L1248.67 129.403C1243.17 141.627 1237.07 147.161 1230.57 147.161C1227.43 147.161 1225.15 145.837 1223.58 143.107C1221.96 140.286 1221.08 135.915 1221.08 129.85C1221.08 111.087 1223.9 96.0118 1229.48 84.5592C1235.29 72.7887 1241.38 67.4587 1247.59 67.4587C1249.18 67.4587 1250.52 67.8201 1251.65 68.5075C1252.78 69.1962 1253.76 70.2491 1254.57 71.7229C1256.2 74.7033 1257.08 79.3137 1257.08 85.69C1257.08 102.591 1254.26 117.15 1248.67 129.398Z" stroke="#F2F2F2" stroke-width="2.17744"/>
</svg>
