<svg xmlns="http://www.w3.org/2000/svg" width="305" height="57" fill="none"><path fill="#202020" d="M14.937 53.678c-1.72 2.064-3.87 3.096-6.45 3.096s-4.616-.66-6.107-1.978C.947 53.477.23 51.757.23 49.636c0-.745.46-3.87 1.376-9.374l2.838-15.394H.832l.172-1.548h3.698c4.243 0 7.368-.172 9.374-.516l1.204-.258-5.934 32.508c1.72-.172 3.154-.975 4.3-2.408l1.29 1.032ZM7.368 14.29c-1.204-1.204-1.806-2.666-1.806-4.386 0-1.72.602-3.182 1.806-4.386 1.204-1.261 2.666-1.892 4.386-1.892 1.72 0 3.183.63 4.386 1.892 1.262 1.204 1.892 2.666 1.892 4.386 0 1.72-.63 3.182-1.892 4.386-1.204 1.204-2.665 1.806-4.386 1.806-1.72 0-3.182-.602-4.386-1.806Z"/><path fill="#202020" d="M68.005 56.774c-5.045 0-7.797-2.15-8.256-6.45-2.523 4.3-5.733 6.45-9.632 6.45-3.898 0-6.88-1.09-8.944-3.268-2.064-2.236-3.096-5.275-3.096-9.116 0-6.765 1.605-12.097 4.816-15.996 3.21-3.899 7.367-5.848 12.47-5.848 2.924 0 5.189.889 6.794 2.666.688.917 1.118 1.605 1.29 2.064l4.644-25.284c-1.72.172-3.153.975-4.3 2.408l-1.29-1.032c1.72-2.064 3.87-3.096 6.45-3.096 2.638 0 4.673.66 6.106 1.978 1.433 1.319 2.15 3.182 2.15 5.59 0 .459-.057 1.204-.172 2.236a6481.158 6481.158 0 0 1-8.17 44.978c1.72-.172 3.154-.975 4.3-2.408l1.29 1.032c-1.72 2.064-3.87 3.096-6.45 3.096Zm-20.21-8.858c0 2.637.258 4.443.774 5.418.573.975 1.433 1.462 2.58 1.462 1.204 0 2.35-.401 3.44-1.204 1.09-.803 2.007-1.835 2.752-3.096 1.376-2.121 2.35-3.927 2.924-5.418L62.76 31.49a9.27 9.27 0 0 0-1.806-4.988c-1.09-1.548-2.953-2.322-5.59-2.322-1.834 0-3.554 2.695-5.16 8.084-1.605 5.39-2.408 10.607-2.408 15.652Z"/><path fill="#202020" d="M92.734 56.774c-4.415 0-7.77-1.09-10.063-3.268-2.293-2.236-3.44-5.017-3.44-8.342 0-3.383.287-6.25.86-8.6a24.407 24.407 0 0 1 3.01-6.88c1.377-2.236 3.44-3.985 6.192-5.246 2.81-1.261 6.278-1.892 10.406-1.892 4.186 0 7.425 1.118 9.719 3.354 2.35 2.179 3.526 5.189 3.526 9.03 0 6.536-1.749 11.81-5.246 15.824-3.44 4.013-8.428 6.02-14.964 6.02Zm-3.784-8.858c0 4.587 1.318 6.88 3.956 6.88 2.694 0 5.073-2.293 7.138-6.88 2.121-4.644 3.182-10.148 3.182-16.512 0-4.816-1.319-7.224-3.957-7.224-2.58 0-4.959 2.207-7.138 6.622-2.12 4.357-3.181 10.062-3.181 17.114Z"/><path fill="#202020" d="M179.275 33.21c-1.204-1.204-1.806-2.666-1.806-4.386 0-1.72.602-3.182 1.806-4.386 1.204-1.261 2.551-1.892 4.042-1.892 1.548 0 2.838.401 3.87 1.204 1.089.745 1.863 1.72 2.322 2.924.057.057.086.115.086.172v.086c.688 1.49 1.032 3.555 1.032 6.192 0 2.58-.172 4.787-.516 6.622-.344 1.835-.975 3.784-1.892 5.848-.917 2.064-2.035 3.927-3.354 5.59-1.319 1.605-3.096 2.953-5.332 4.042-2.179 1.032-4.615 1.548-7.31 1.548-4.587 0-8.027-1.663-10.32-4.988-2.752 3.325-6.507 4.988-11.266 4.988-3.669 0-6.679-1.147-9.03-3.44-2.293-2.293-3.44-4.93-3.44-7.912 0-2.981.516-6.65 1.548-11.008 1.089-4.415 1.691-7.797 1.806-10.148-.917.057-1.806.401-2.666 1.032-.86.573-1.491 1.147-1.892 1.72l-.602.86-1.29-1.032a8.19 8.19 0 0 1 .774-1.204c.344-.459 1.204-1.09 2.58-1.892 1.433-.803 3.211-1.204 5.332-1.204s3.813.688 5.074 2.064c1.319 1.376 1.978 3.125 1.978 5.246 0 2.121-.573 5.418-1.72 9.89-1.147 4.415-1.72 7.54-1.72 9.374 0 1.777.401 3.182 1.204 4.214.86 1.032 2.064 1.548 3.612 1.548 3.325 0 6.163-1.72 8.514-5.16-.631-1.605-.946-3.469-.946-5.59s.516-5.36 1.548-9.718c1.089-4.415 1.691-7.797 1.806-10.148-.917.057-1.806.401-2.666 1.032-.86.573-1.491 1.147-1.892 1.72l-.602.86-1.29-1.032a8.19 8.19 0 0 1 .774-1.204c.344-.459 1.204-1.09 2.58-1.892 1.433-.803 3.211-1.204 5.332-1.204s3.813.688 5.074 2.064c1.319 1.376 1.978 3.125 1.978 5.246 0 2.121-.573 5.418-1.72 9.89-1.147 4.415-1.72 7.54-1.72 9.374 0 1.777.401 3.182 1.204 4.214.86 1.032 2.064 1.548 3.612 1.548 3.841 0 7.281-2.064 10.32-6.192 3.039-4.185 4.558-8.887 4.558-14.104 0-.401-.057-1.003-.172-1.806-1.204 1.49-2.752 2.236-4.644 2.236-1.835 0-3.354-.602-4.558-1.806Z"/><path fill="#202020" d="M227.044 55.054c1.376 0 2.809-.803 4.3-2.408l1.29 1.032c-.401.803-1.29 1.52-2.666 2.15-1.376.63-2.895.946-4.558.946-5.217 0-7.826-2.35-7.826-7.052 0-2.007.516-5.59 1.548-10.75s1.548-8.543 1.548-10.148c0-2.465-1.175-3.698-3.526-3.698-1.949 0-3.841 1.319-5.676 3.956-1.777 2.637-3.239 6.22-4.386 10.75L204.254 56h-10.32l9.546-54.008c-1.72.172-3.153.975-4.3 2.408l-1.29-1.032c1.72-2.064 3.87-3.096 6.45-3.096 2.637 0 4.673.66 6.106 1.978 1.433 1.319 2.15 3.182 2.15 5.59 0 .459-.057 1.204-.172 2.236l-3.612 20.382c2.351-5.275 5.991-7.912 10.922-7.912 3.383 0 6.02.975 7.912 2.924 1.892 1.892 2.838 4.53 2.838 7.912 0 1.777-.545 5.217-1.634 10.32-1.089 5.045-1.691 8.83-1.806 11.352Z"/><path fill="#202020" d="M267.06 56.774c-5.045 0-7.797-2.207-8.256-6.622-2.522 4.415-5.704 6.622-9.546 6.622-3.841 0-6.908-1.147-9.202-3.44-2.236-2.35-3.354-5.619-3.354-9.804 0-6.536 1.606-11.667 4.816-15.394 3.211-3.727 7.368-5.59 12.47-5.59 4.186 0 6.966 1.978 8.342 5.934.287-1.72.602-3.44.946-5.16 4.243 0 7.396-.172 9.46-.516l1.118-.258-5.934 32.508c1.72-.172 3.154-.975 4.3-2.408l1.29 1.032c-1.72 2.064-3.87 3.096-6.45 3.096Zm-20.64-8.858c0 2.58.316 4.386.946 5.418.688.975 1.72 1.462 3.096 1.462 1.376 0 2.781-.745 4.214-2.236 1.892-1.95 3.412-4.415 4.558-7.396.172-.745.488-2.523.946-5.332.516-2.867.946-5.217 1.29-7.052-.172-2.179-.774-4.07-1.806-5.676-1.032-1.605-2.322-2.408-3.87-2.408-2.809 0-5.074 2.523-6.794 7.568-1.72 4.988-2.58 10.205-2.58 15.652Z"/><path fill="#202020" d="m283.69 23.32 2.323-12.728c4.242 0 7.396-.172 9.46-.516l1.118-.258c-.803 4.013-1.692 8.514-2.667 13.502h10.665l-.172 1.548h-10.75c-2.867 14.792-4.301 23.707-4.301 26.746 0 1.835.975 2.752 2.924 2.752 1.95 0 3.727-1.233 5.332-3.698a25.386 25.386 0 0 0 3.44-7.998l1.549.516c-2.122 9.059-6.508 13.588-13.158 13.588-2.752 0-5.046-.745-6.88-2.236-1.835-1.548-2.753-3.67-2.753-6.364 0-2.752 1.176-10.52 3.526-23.306h-4.213l.172-1.548h4.385Z"/></svg>
