<svg xmlns="http://www.w3.org/2000/svg" fill="none" viewBox="0 0 1287 157">
  <path stroke="#F2F2F2" stroke-width="2.177" d="m43.166 146.557.711-.853-.867-.694-3.45-2.76-.85-.68-.68.85c-2.563 3.204-5.657 5.129-9.307 5.827L44.32 62.795l.292-1.6-1.591.34-3.198.686c-5.272.9-13.544 1.36-24.864 1.36H4.096l-.108.969-.46 4.14-.134 1.209h9.568L5.61 109.783l-.001.009-.002.009c-1.227 7.363-2.148 13.14-2.763 17.328-.609 4.146-.932 6.826-.932 7.921 0 5.947 2.023 10.849 6.102 14.601l.008.007.008.007c4.239 3.75 9.966 5.564 17.051 5.564 7.238 0 13.29-2.916 18.086-8.672ZM16.171 28.79c0 4.885 1.723 9.073 5.15 12.5 3.426 3.426 7.613 5.149 12.499 5.149 4.881 0 9.066-1.72 12.49-5.14 3.58-3.42 5.389-7.611 5.389-12.509 0-4.894-1.806-9.081-5.379-12.5-3.419-3.573-7.606-5.379-12.5-5.379-4.898 0-9.088 1.809-12.509 5.388-3.42 3.425-5.14 7.61-5.14 12.491Z"/>
  <path stroke="#F2F2F2" stroke-width="2.177" d="M130.703 148.342c4.978-26.921 9.955-55.99 14.932-87.21 2.607-15.946 4.582-28.41 5.924-37.386 1.146-7.659 1.84-12.832 2.065-15.458 2.77.329 5.191 2.042 7.259 5.403l.008.012.008.013c2.473 3.783 3.732 8.321 3.732 13.664 0 8.826-3.151 20.777-9.573 35.914-6.45 15.051-9.747 26.798-9.747 35.156v1.089h6.318V98.45c0-6.97 3.138-18.215 9.576-33.852 6.603-15.663 9.974-27.867 9.974-36.528 0-8.56-1.863-15.154-5.788-19.575-3.736-4.38-8.561-6.584-14.391-6.584-8.319 0-15.077 3.384-20.186 10.09l-.005.006-.005.007c-4.907 6.647-8.698 17.662-11.465 32.881v.002l-14.95 82.8-.007.036-.004.037c-.307 2.763-.467 4.808-.467 6.1 0 6.667 1.993 11.971 6.102 15.751 4.047 3.724 8.992 5.578 14.767 5.578 5.647 0 10.314-1.096 13.916-3.385 3.609-2.198 6.477-4.657 8.569-7.393 2.054-2.685 4.008-6.054 5.87-10.087 1.997-4.148 3.271-7.387 3.76-9.666l.185-.864-.808-.359-4.14-1.84-1.063-.473-.401 1.093-2.53 6.9-.004.01-.003.01c-1.483 4.299-4.015 8.633-7.63 13.001-3.142 3.796-6.407 5.789-9.798 6.196Z"/>
  <path stroke="#F2F2F2" stroke-width="2.177" d="m212.166 146.557.711-.853-.867-.694-3.45-2.76-.85-.68-.68.85c-2.563 3.204-5.657 5.129-9.307 5.827l15.598-85.452.292-1.6-1.591.34-3.198.686c-5.272.9-13.544 1.36-24.864 1.36h-10.864l-.108.969-.46 4.14-.134 1.209h9.568l-7.353 39.884-.001.009-.002.009c-1.227 7.363-2.148 13.14-2.763 17.328-.609 4.146-.932 6.826-.932 7.921 0 5.947 2.023 10.849 6.102 14.601l.008.007.008.007c4.238 3.75 9.966 5.564 17.051 5.564 7.238 0 13.289-2.916 18.086-8.672ZM185.171 28.79c0 4.885 1.723 9.073 5.149 12.5 3.427 3.426 7.615 5.149 12.5 5.149 4.881 0 9.066-1.72 12.491-5.14 3.579-3.42 5.388-7.611 5.388-12.509 0-4.894-1.806-9.081-5.379-12.5-3.419-3.573-7.606-5.379-12.5-5.379-4.898 0-9.088 1.809-12.509 5.388-3.42 3.425-5.14 7.61-5.14 12.491Z"/>
  <mask id="a" width="106" height="157" x="219" y="0" fill="#000" maskUnits="userSpaceOnUse">
    <path fill="#fff" d="M219 0h106v157H219z"/>
    <path d="m257.65 107.65-8.28 44.39H222L247.99 7.6c-4.6.46-8.433 2.607-11.5 6.44l-3.45-2.76C237.64 5.76 243.39 3 250.29 3c7.053 0 12.497 1.763 16.33 5.29 3.833 3.527 5.75 8.51 5.75 14.95 0 1.227-.153 3.22-.46 5.98-3.527 19.473-7.36 40.48-11.5 63.02 3.833-9.353 9.353-16.637 16.56-21.85 7.207-5.213 14.873-7.82 23-7.82s13.8 1.61 17.02 4.83c3.373 3.22 5.06 7.283 5.06 12.19 0 4.753-1.457 8.663-4.37 11.73-2.913 3.067-6.747 4.6-11.5 4.6-4.6 0-8.203-1.303-10.81-3.91-2.453-2.76-3.68-6.747-3.68-11.96 0-5.367 1.84-9.43 5.52-12.19-14.72 1.687-26.45 12.573-35.19 32.66 2.147-.307 3.987-.46 5.52-.46 8.127 0 14.49 1.61 19.09 4.83 4.753 3.22 7.82 7.207 9.2 11.96a87.857 87.857 0 0 1 2.99 14.03c.613 4.6 1.61 8.51 2.99 11.73 1.38 3.22 3.833 4.83 7.36 4.83s6.287-1.457 8.28-4.37l3.45 2.76c-1.073 2.147-3.45 4.063-7.13 5.75-3.68 1.687-8.433 2.53-14.26 2.53-5.673 0-10.733-1.457-15.18-4.37-4.293-2.913-7.283-6.517-8.97-10.81-1.687-4.447-3.067-8.817-4.14-13.11-2.913-11.04-7.437-17.097-13.57-18.17Z"/>
  </mask>
  <path fill="#F2F2F2" d="m257.65 107.65.375-2.145-2.121-.371-.395 2.117 2.141.399Zm-8.28 44.39v2.177h1.809l.332-1.778-2.141-.399Zm-27.37 0-2.143-.386-.461 2.563H222v-2.177ZM247.99 7.6l2.143.386.511-2.84-2.871.287.217 2.167Zm-11.5 6.44-1.36 1.7 1.7 1.36 1.36-1.7-1.7-1.36Zm-3.45-2.76-1.673-1.394-1.422 1.707 1.735 1.387 1.36-1.7Zm33.58-2.99-1.474 1.602 1.474-1.602Zm5.29 20.93 2.143.388.013-.073.008-.075-2.164-.24Zm-11.5 63.02-2.142-.393 4.157 1.219-2.015-.826Zm16.56-21.85-1.276-1.764 1.276 1.764Zm40.02-2.99-1.54 1.54.018.018.019.017 1.503-1.575Zm.69 23.92 1.579 1.5-1.579-1.5Zm-22.31.69-1.627 1.447.042.047.045.046 1.54-1.54Zm1.84-24.15 1.306 1.742 6.427-4.82-7.981.915.248 2.163Zm-35.19 32.66-1.997-.869-1.556 3.576 3.861-.551-.308-2.156Zm24.61 4.37-1.249 1.784.014.009.014.01 1.221-1.803Zm9.2 11.96-2.091.607.003.009.002.01 2.086-.626Zm2.99 14.03-2.16.279.002.009 2.158-.288Zm2.99 11.73-2.001.858 2.001-.858Zm15.64.46 1.36-1.7-1.832-1.466-1.325 1.936 1.797 1.23Zm3.45 2.76 1.948.974.787-1.575-1.375-1.099-1.36 1.7Zm-7.13 5.75.907 1.979-.907-1.979Zm-29.44-1.84-1.223 1.802.015.01.015.009 1.193-1.821Zm-8.97-10.81-2.036.772.005.012.004.012 2.027-.796Zm-4.14-13.11 2.112-.528-.003-.014-.004-.014-2.105.556Zm-15.711-18.569-8.28 44.39 4.282.798 8.28-44.39-4.282-.798Zm-6.139 42.612H222v4.354h27.37v-4.354Zm-25.227 2.563 25.99-144.44-4.286-.772-25.99 144.44 4.286.772Zm23.63-146.993c-5.222.523-9.576 2.988-12.983 7.247l3.4 2.72c2.726-3.407 6.039-5.236 10.017-5.633l-.434-4.334Zm-9.923 6.907-3.45-2.76-2.72 3.4 3.45 2.76 2.72-3.4Zm-3.137.334c4.206-5.047 9.353-7.497 15.577-7.497V.823c-7.576 0-13.929 3.07-18.923 9.063l3.346 2.788Zm15.577-7.497c6.703 0 11.549 1.673 14.856 4.715l2.948-3.204C263.735 2.677 257.693.823 250.29.823v4.354Zm14.856 4.715c3.283 3.02 5.047 7.362 5.047 13.348h4.354c0-6.894-2.069-12.52-6.453-16.552l-2.948 3.204Zm5.047 13.348c0 1.096-.141 2.985-.447 5.74l4.328.48c.307-2.765.473-4.863.473-6.22h-4.354Zm-.426 5.592a25572.697 25572.697 0 0 1-11.499 63.015l4.284.786c4.14-22.541 7.974-43.55 11.501-63.025l-4.286-.776Zm-7.342 64.234c3.701-9.03 8.987-15.968 15.821-20.912l-2.552-3.528c-7.579 5.482-13.333 13.112-17.299 22.788l4.03 1.652Zm15.821-20.912c6.873-4.971 14.099-7.407 21.724-7.407v-4.354c-8.629 0-16.735 2.777-24.276 8.233l2.552 3.528Zm21.724-7.407c7.965 0 12.89 1.602 15.48 4.193l3.08-3.08c-3.85-3.85-10.271-5.467-18.56-5.467v4.354Zm15.517 4.228c2.918 2.786 4.386 6.269 4.386 10.615h4.354c0-5.467-1.905-10.11-5.734-13.765l-3.006 3.15Zm4.386 10.615c0 4.27-1.291 7.62-3.772 10.23l3.158 3c3.346-3.523 4.968-7.993 4.968-13.23h-4.354Zm-3.772 10.23c-2.449 2.579-5.683 3.923-9.921 3.923v4.354c5.269 0 9.701-1.722 13.079-5.277l-3.158-3Zm-9.921 3.923c-4.174 0-7.168-1.17-9.27-3.273l-3.08 3.08c3.111 3.11 7.324 4.547 12.35 4.547v-4.354Zm-9.183-3.18c-1.976-2.224-3.13-5.615-3.13-10.513h-4.354c0 5.528 1.3 10.11 4.23 13.407l3.254-2.894Zm-3.13-10.513c0-4.81 1.614-8.171 4.649-10.448l-2.612-3.484c-4.325 3.243-6.391 8.01-6.391 13.932h4.354Zm3.095-14.353c-15.825 1.813-28.051 13.528-36.939 33.954l3.994 1.738c8.592-19.747 19.826-29.806 33.441-31.366l-.496-4.326Zm-34.634 36.979c2.083-.298 3.814-.439 5.212-.439v-4.354c-1.669 0-3.617.166-5.828.481l.616 4.312Zm5.212-.439c7.871 0 13.738 1.564 17.841 4.437l2.498-3.568c-5.097-3.567-11.957-5.223-20.339-5.223v4.354Zm17.869 4.456c4.403 2.983 7.114 6.575 8.33 10.764l4.182-1.214c-1.544-5.318-4.967-9.699-10.07-13.156l-2.442 3.606Zm8.335 10.783a85.67 85.67 0 0 1 2.916 13.683l4.32-.558a90.132 90.132 0 0 0-3.064-14.377l-4.172 1.252Zm2.918 13.692c.631 4.737 1.668 8.85 3.147 12.3l4.002-1.716c-1.281-2.99-2.238-6.697-2.833-11.16l-4.316.576Zm3.147 12.3c.825 1.925 2.033 3.503 3.681 4.585 1.648 1.081 3.579 1.564 5.68 1.564v-4.354c-1.426 0-2.485-.322-3.29-.851-.805-.528-1.514-1.365-2.069-2.66l-4.002 1.716Zm9.361 6.149c4.246 0 7.678-1.812 10.077-5.317l-3.594-2.46c-1.588 2.321-3.676 3.423-6.483 3.423v4.354Zm6.92-4.847 3.45 2.76 2.72-3.4-3.45-2.76-2.72 3.4Zm2.862.086c-.743 1.487-2.578 3.135-6.089 4.745l1.814 3.958c3.849-1.763 6.768-3.949 8.171-6.755l-3.896-1.948Zm-6.089 4.745c-3.299 1.512-7.712 2.332-13.353 2.332v4.354c6.013 0 11.106-.866 15.167-2.728l-1.814-3.958Zm-13.353 2.332c-5.279 0-9.919-1.349-13.987-4.014l-2.386 3.642c4.825 3.162 10.306 4.726 16.373 4.726v-4.354Zm-13.957-3.995c-3.977-2.699-6.66-5.969-8.166-9.804l-4.054 1.592c1.867 4.752 5.165 8.688 9.774 11.816l2.446-3.604Zm-8.157-9.78c-1.659-4.373-3.012-8.661-4.064-12.866l-4.224 1.056c1.095 4.382 2.501 8.834 4.216 13.354l4.072-1.544Zm-4.071-12.894c-2.943-11.154-7.791-18.445-15.3-19.759l-.75 4.29c4.758.833 8.957 5.655 11.84 16.581l4.21-1.112Z" mask="url(#a)"/>
  <path stroke="#F2F2F2" stroke-width="2.177" d="m398.839 108.267.006-.003c4.729-2.601 8.331-5.824 10.748-9.692 2.42-3.872 3.616-8.332 3.616-13.342 0-7.986-2.523-14.147-7.714-18.275-5.143-4.09-12.733-6.044-22.585-6.044-15.459 0-27.884 5.324-37.16 16.012-9.271 10.53-13.839 25.077-13.839 43.497 0 10.512 3.226 18.946 9.769 25.169l.009.009.011.009c6.711 6.073 16.445 9.022 29.02 9.022 6.713 0 12.832-1.093 18.344-3.298l.013-.005.012-.005c5.428-2.327 9.619-4.841 12.509-7.569 2.851-2.693 5.443-6.078 7.785-10.138l.004-.008.005-.007c2.315-4.168 3.765-7.589 4.258-10.218l.159-.846-.787-.35-4.14-1.84-1.531-.68v1.675c0 .172-.053.501-.231 1.036-.173.518-.441 1.164-.813 1.946-.744 1.562-1.872 3.596-3.397 6.112-1.648 2.697-3.599 5.325-5.855 7.883-2.179 2.32-5.191 4.389-9.081 6.184l-.008.004-.007.003c-3.67 1.762-7.799 2.653-12.409 2.653-4.47 0-8.169-1.499-11.172-4.492-2.799-3.093-4.299-7.909-4.299-14.659 0-2.992.133-7.001.403-12.034 16.452-.245 29.272-2.781 38.357-7.709Zm2.107-34.745.017.02.019.019c2.847 2.99 4.299 6.847 4.299 11.669 0 3.844-.917 7.163-2.719 9.996-1.805 2.837-4.537 5.249-8.257 7.211-7.268 3.833-18.199 5.893-32.914 6.073 1.878-13.077 5.456-22.874 10.642-29.503 5.58-6.936 11.05-10.168 16.397-10.168 5.778 0 9.874 1.623 12.516 4.683Z"/>
  <path stroke="#F2F2F2" stroke-width="2.177" d="M603.41 96.439c4.574 0 8.47-1.544 11.636-4.598.105.986.155 1.77.155 2.359 0 13.725-3.991 26.073-11.981 37.078-7.995 10.86-16.903 16.113-26.72 16.113-3.865 0-6.752-1.271-8.812-3.734-1.945-2.509-2.979-5.998-2.979-10.587 0-4.752 1.497-12.986 4.565-24.796l.001-.004c3.069-11.97 4.634-20.9 4.634-26.72 0-5.915-1.847-10.87-5.585-14.775-3.607-3.93-8.436-5.864-14.364-5.864-5.807 0-10.755 1.099-14.792 3.36l-.008.004-.009.005c-1.858 1.084-3.388 2.063-4.58 2.937-1.176.862-2.084 1.666-2.642 2.41-.942 1.256-1.673 2.387-2.173 3.386l-.393.787.687.55 3.45 2.76.906.725.666-.95 1.61-2.3c.968-1.383 2.536-2.828 4.772-4.32l.02-.013.02-.014c1.757-1.289 3.528-2.078 5.32-2.402-.443 6.113-2.008 14.65-4.721 25.643l-.002.01c-2.763 11.666-4.17 20.433-4.17 26.241 0 5.544.791 10.485 2.397 14.803-6.074 8.671-13.253 12.858-21.548 12.858-3.865 0-6.752-1.271-8.812-3.734-1.945-2.509-2.979-5.998-2.979-10.587 0-4.752 1.497-12.986 4.565-24.796l.001-.004c3.069-11.97 4.634-20.9 4.634-26.72 0-5.915-1.847-10.87-5.585-14.775-3.607-3.93-8.436-5.864-14.364-5.864-5.807 0-10.755 1.099-14.792 3.36l-.008.004-.009.005c-1.858 1.084-3.388 2.063-4.58 2.937-1.176.862-2.084 1.666-2.642 2.41-.942 1.256-1.673 2.387-2.173 3.386l-.393.787.687.55 3.45 2.76.906.725.666-.95 1.61-2.3c.968-1.383 2.536-2.828 4.772-4.32l.02-.013.02-.014c1.757-1.289 3.528-2.078 5.32-2.402-.443 6.113-2.008 14.65-4.721 25.643l-.002.01c-2.771 11.699-4.17 21.602-4.17 29.691 0 8.289 3.201 15.612 9.519 21.93l.01.009c6.514 6.356 14.849 9.51 24.91 9.51 12.499 0 22.555-4.21 30.056-12.669 6.355 8.467 15.635 12.669 27.674 12.669 7.349 0 14.027-1.408 20.016-4.245l.011-.005c6.093-2.969 10.981-6.662 14.624-11.098l.006-.007.006-.007c3.587-4.523 6.624-9.586 9.112-15.185 2.481-5.582 4.197-10.876 5.135-15.881.936-4.993 1.399-10.967 1.399-17.911 0-7.002-.894-12.627-2.76-16.796a1.667 1.667 0 0 0-.372-1.024c-1.312-3.34-3.492-6.055-6.515-8.13-2.98-2.307-6.669-3.429-10.992-3.429-4.331 0-8.203 1.845-11.589 5.388-3.42 3.425-5.14 7.61-5.14 12.491 0 4.885 1.723 9.073 5.149 12.5 3.441 3.44 7.789 5.149 12.96 5.149Z"/>
  <path stroke="#F2F2F2" stroke-width="2.177" d="M643.88 14.72c2.566-3.207 5.662-5.132 9.316-5.829L627.928 151.85l-.226 1.279H657.514l.158-.901 7.583-43.2c3.047-12.02 6.912-21.458 11.563-28.363 4.835-6.947 9.609-10.106 14.282-10.106 2.962 0 4.987.774 6.285 2.135 1.307 1.37 2.056 3.525 2.056 6.666 0 4.165-1.354 13.101-4.119 26.926-2.758 13.793-4.161 23.475-4.161 28.964 0 6.485 1.805 11.541 5.593 14.954 3.766 3.394 9.308 4.995 16.426 4.995 4.588 0 8.808-.871 12.644-2.629 3.764-1.726 6.412-3.777 7.65-6.253l.393-.787-.687-.55-3.45-2.76-.79-.632-.688.741c-3.441 3.706-6.622 5.616-9.547 6.013.428-6.636 2.001-16.279 4.739-28.962l.001-.003c2.909-13.629 4.394-22.94 4.394-27.827 0-9.252-2.593-16.61-7.904-21.924-5.312-5.47-12.674-8.145-21.935-8.145-6.799 0-12.759 1.823-17.831 5.497-3.471 2.515-6.496 5.874-9.086 10.052l8.439-47.62.006-.035.004-.035c.307-2.763.467-4.808.467-6.1 0-6.667-1.993-11.971-6.102-15.751-4.096-3.769-9.839-5.578-17.067-5.578-7.238 0-13.289 2.916-18.086 8.672l-.711.853.867.694 3.45 2.76.85.68.68-.85Z"/>
  <path stroke="#F2F2F2" stroke-width="2.177" d="M777.58 154.629c9.989 0 18.287-5.347 24.914-15.678.984 4.674 3.089 8.375 6.375 11.011 3.941 3.161 9.431 4.667 16.321 4.667 7.238 0 13.289-2.916 18.086-8.672l.711-.853-.867-.694-3.45-2.76-.85-.68-.68.85c-2.563 3.204-5.657 5.129-9.307 5.827l15.598-85.451.297-1.63-1.613.373-2.957.683c-5.428.9-13.776 1.36-25.088 1.36h-.893l-.175.874a442.587 442.587 0 0 0-1.898 10.106c-1.817-3.747-4.234-6.721-7.27-8.882-3.941-2.803-8.833-4.169-14.604-4.169-13.95 0-25.373 5.112-34.175 15.328-8.806 10.222-13.144 24.227-13.144 41.881 0 11.389 3.047 20.428 9.27 26.97l.01.01.009.01c6.375 6.375 14.875 9.519 25.38 9.519Zm13.709-13.117-.004.003c-3.73 3.88-7.222 5.646-10.485 5.646-3.374 0-5.767-1.168-7.37-3.419-1.505-2.489-2.351-7.04-2.351-13.892 0-14.45 2.281-28.283 6.84-41.505l.001-.004c2.277-6.678 4.882-11.584 7.773-14.804 2.868-3.195 5.983-4.698 9.367-4.698 3.68 0 6.821 1.875 9.434 5.94 2.627 4.087 4.186 8.92 4.649 14.534-.916 4.889-2.058 11.13-3.424 18.724l-.002.009-.001.009c-1.214 7.431-2.046 12.121-2.5 14.116-3.02 7.828-7.001 14.265-11.927 19.341Z"/>
  <path stroke="#F2F2F2" stroke-width="2.177" d="M858 69.339h9.963c-3.026 16.507-5.307 29.833-6.842 39.976-1.57 10.377-2.37 17.49-2.37 21.265 0 7.483 2.563 13.478 7.747 17.852l.008.007.007.006c5.132 4.169 11.52 6.224 19.087 6.224 9.17 0 16.837-3.136 22.92-9.417 6.052-6.25 10.468-15.544 13.33-27.764l.226-.967-.942-.314-4.14-1.38-1.126-.375-.277 1.154a66.91 66.91 0 0 1-9.053 21.05c-4.201 6.451-8.665 9.395-13.348 9.395-2.455 0-4.093-.579-5.119-1.544-1.013-.953-1.612-2.459-1.612-4.727 0-3.962.942-11.869 2.861-23.805 1.885-11.727 4.701-27.272 8.448-46.636h28.826l.108-.969.46-4.14.134-1.209h-28.414a8187.107 8187.107 0 0 1 6.876-34.808l.33-1.653-1.643.38-2.957.682c-5.428.9-13.776 1.36-25.088 1.36h-.908l-.163.893-6.047 33.146h-11.796l-.108.969-.46 4.14-.134 1.209H858Z"/>
  <path stroke="#F2F2F2" stroke-width="2.177" d="m1022.17 146.557.71-.853-.87-.694-3.45-2.76-.85-.68-.68.85c-2.56 3.204-5.66 5.129-9.31 5.827l15.6-85.452.29-1.6-1.59.34-3.2.686c-5.27.9-13.54 1.36-24.86 1.36h-10.864l-.108.969-.46 4.14-.134 1.209h9.568l-7.353 39.884-.001.009-.002.009c-1.227 7.363-2.148 13.14-2.763 17.328-.609 4.146-.932 6.826-.932 7.921 0 5.947 2.023 10.849 6.102 14.601l.008.007.008.007c4.238 3.75 9.966 5.564 17.051 5.564 7.24 0 13.29-2.916 18.09-8.672ZM995.171 28.79c0 4.885 1.723 9.073 5.149 12.5 3.43 3.426 7.61 5.149 12.5 5.149 4.88 0 9.07-1.72 12.49-5.14 3.58-3.42 5.39-7.611 5.39-12.509 0-4.894-1.81-9.081-5.38-12.5-3.42-3.573-7.61-5.379-12.5-5.379-4.9 0-9.09 1.809-12.51 5.388-3.419 3.425-5.139 7.61-5.139 12.491Z"/>
  <path stroke="#F2F2F2" stroke-width="2.177" d="M1114.2 155.199c10.12 0 18.5-5.201 25.14-15.287.99 4.562 3.1 8.174 6.39 10.743 3.94 3.079 9.43 4.544 16.31 4.544 7.24 0 13.29-2.916 18.09-8.672l.71-.853-.87-.694-3.45-2.76-.85-.68-.68.85c-2.56 3.203-5.65 5.128-9.3 5.826 6.96-37.586 14.16-77.187 21.57-118.805l.01-.035v-.036c.31-2.763.47-4.808.47-6.1 0-6.667-1.99-11.971-6.1-15.751-4.1-3.769-9.84-5.578-17.07-5.578-7.24 0-13.29 2.916-18.09 8.672l-.71.853.87.694 3.45 2.76.85.68.68-.85c2.56-3.204 5.66-5.129 9.31-5.826l-11.59 63.09a52.93 52.93 0 0 0-2.07-2.937l-.03-.04-.03-.037c-4.55-5.031-10.93-7.489-18.98-7.489-13.97 0-25.39 5.356-34.19 16.037-8.79 10.679-13.13 25.212-13.13 43.472 0 10.472 2.82 18.888 8.57 25.119l.01.01c5.78 6.103 14.08 9.08 24.71 9.08Zm18.41-18.471-.02.019-.01.019c-1.92 3.258-4.28 5.905-7.07 7.958-2.75 2.026-5.59 3.007-8.55 3.007-2.68 0-4.62-1.098-5.95-3.352-.6-1.143-1.09-2.854-1.42-5.2-.34-2.348-.51-5.263-.51-8.759 0-13.377 2.13-27.225 6.39-41.55 2.14-7.17 4.33-12.462 6.55-15.94 2.25-3.522 4.34-4.901 6.21-4.901 6.85 0 11.42 2.002 14.06 5.748l.01.007v.008c2.77 3.784 4.3 7.988 4.61 12.634l-6.62 36.107c-1.5 3.87-4.05 8.598-7.68 14.195Z"/>
  <path stroke="#F2F2F2" stroke-width="2.177" d="m1202.44 145.58.01.009c6.4 6.084 15.69 9.04 27.66 9.04 17.71 0 31.39-5.449 40.84-16.478 9.56-10.973 14.3-25.352 14.3-43.031 0-10.506-3.22-18.867-9.77-24.94-6.39-6.226-15.36-9.269-26.74-9.269-11.14 0-20.58 1.702-28.28 5.156v.003c-7.53 3.448-13.22 8.256-17.03 14.444-3.74 5.916-6.47 12.15-8.18 18.7l-.01.01v.008c-1.56 6.397-2.33 14.156-2.33 23.258 0 9.174 3.18 16.896 9.53 23.09Zm46.23-16.182v.005c-5.5 12.224-11.6 17.758-18.1 17.758-3.14 0-5.42-1.324-6.99-4.054-1.62-2.821-2.5-7.192-2.5-13.257 0-18.763 2.82-33.838 8.4-45.29 5.81-11.771 11.9-17.101 18.11-17.101 1.59 0 2.93.361 4.06 1.048 1.13.69 2.11 1.742 2.92 3.216 1.63 2.98 2.51 7.59 2.51 13.967 0 16.901-2.82 31.46-8.41 43.708Z"/>
</svg>
