<svg xmlns="http://www.w3.org/2000/svg" fill="none" viewBox="0 0 155 58"><path fill="#202020" d="M15.634 54.149c-1.735 2.082-3.904 3.123-6.506 3.123-2.603 0-4.656-.665-6.16-1.995-1.446-1.33-2.17-3.066-2.17-5.206 0-.752.464-3.904 1.389-9.457l2.863-15.53H1.406l.174-1.56h3.73c4.28 0 7.433-.174 9.457-.521l1.215-.26-5.987 32.794c1.735-.174 3.181-.983 4.338-2.43l1.301 1.042ZM8 14.413C6.785 13.2 6.178 11.724 6.178 9.99c0-1.735.607-3.21 1.822-4.425 1.214-1.272 2.69-1.908 4.424-1.908 1.736 0 3.21.636 4.425 1.908 1.273 1.215 1.909 2.69 1.909 4.425 0 1.735-.636 3.21-1.909 4.425-1.215 1.214-2.69 1.821-4.425 1.821-1.735 0-3.21-.607-4.424-1.821Z"/><path fill="#202020" d="M54.943 53.368c-.752.983-1.793 1.88-3.124 2.69-1.272.81-2.95 1.214-5.032 1.214s-3.846-.665-5.292-1.995c-1.446-1.33-2.169-3.21-2.169-5.64 0-.462.058-1.214.174-2.255l5.639-31.233c1.041-5.726 2.458-9.804 4.251-12.233 1.85-2.43 4.28-3.644 7.288-3.644 2.082 0 3.788.78 5.119 2.342 1.388 1.562 2.082 3.933 2.082 7.115 0 3.18-1.244 7.721-3.73 13.62-2.43 5.9-3.645 10.21-3.645 12.927h-1.561c0-3.065 1.214-7.432 3.643-13.1 2.43-5.726 3.644-10.295 3.644-13.708 0-2.082-.491-3.875-1.475-5.379-.925-1.503-2.082-2.255-3.47-2.255-.058 1.503-1.07 8.27-3.036 20.301-1.91 11.973-3.818 23.107-5.727 33.402 1.62 0 3.124-.839 4.512-2.516 1.388-1.678 2.371-3.355 2.95-5.032l.954-2.603 1.562.694c-.174.81-.636 1.996-1.389 3.557-.694 1.504-1.416 2.748-2.168 3.73Z"/><path fill="#202020" d="M79.263 54.149c-1.736 2.082-3.904 3.123-6.507 3.123-2.603 0-4.656-.665-6.16-1.995-1.446-1.33-2.169-3.066-2.169-5.206 0-.752.463-3.904 1.388-9.457l2.863-15.53h-3.644l.174-1.56h3.73c4.28 0 7.433-.174 9.457-.521l1.215-.26-5.987 32.794c1.736-.174 3.181-.983 4.338-2.43l1.302 1.042Zm-7.635-39.736c-1.215-1.214-1.822-2.689-1.822-4.424 0-1.735.607-3.21 1.822-4.425 1.215-1.272 2.69-1.908 4.425-1.908 1.735 0 3.21.636 4.424 1.908 1.273 1.215 1.909 2.69 1.909 4.425 0 1.735-.636 3.21-1.909 4.425-1.214 1.214-2.69 1.821-4.424 1.821-1.736 0-3.21-.607-4.425-1.821Z"/><path fill="#202020" d="M96.717 39.747 93.594 56.49H83.27l9.803-54.484c-1.735.174-3.18.983-4.337 2.43l-1.302-1.042C89.17 1.313 91.338.272 93.941.272c2.66 0 4.714.665 6.16 1.995 1.446 1.33 2.169 3.21 2.169 5.64 0 .462-.058 1.214-.174 2.255-1.33 7.346-2.776 15.27-4.338 23.772 1.446-3.528 3.529-6.275 6.247-8.242 2.718-1.966 5.61-2.95 8.676-2.95 3.065 0 5.205.608 6.42 1.822 1.272 1.215 1.908 2.747 1.908 4.598 0 1.793-.549 3.268-1.648 4.425-1.099 1.157-2.545 1.735-4.338 1.735-1.735 0-3.094-.491-4.077-1.475-.926-1.04-1.389-2.545-1.389-4.511 0-2.024.695-3.557 2.083-4.598-5.553.636-9.978 4.742-13.274 12.32.81-.116 1.504-.174 2.082-.174 3.065 0 5.466.607 7.201 1.822 1.793 1.214 2.95 2.718 3.47 4.511.521 1.735.897 3.5 1.128 5.292.231 1.736.607 3.21 1.128 4.425.52 1.215 1.446 1.822 2.776 1.822 1.33 0 2.371-.55 3.123-1.648l1.302 1.04c-.405.81-1.302 1.533-2.69 2.17-1.388.636-3.181.954-5.379.954-2.14 0-4.049-.55-5.726-1.648-1.619-1.1-2.747-2.459-3.383-4.078a44.009 44.009 0 0 1-1.562-4.945c-1.099-4.165-2.805-6.45-5.119-6.854Z"/><path fill="#202020" d="M143.716 22.742c7.346 0 11.019 2.921 11.019 8.763 0 3.644-1.736 6.42-5.206 8.329-3.412 1.85-8.3 2.805-14.662 2.863-.116 2.082-.173 3.73-.173 4.945 0 2.603.578 4.54 1.735 5.813 1.214 1.214 2.718 1.822 4.511 1.822 1.793 0 3.413-.348 4.859-1.042 1.503-.694 2.689-1.503 3.557-2.429a21.711 21.711 0 0 0 2.255-3.036c1.157-1.909 1.735-3.124 1.735-3.644l1.562.694c-.173.925-.694 2.169-1.562 3.73-.867 1.504-1.821 2.748-2.863 3.731-1.041.983-2.573 1.909-4.598 2.776-2.024.81-4.28 1.215-6.767 1.215-4.685 0-8.242-1.099-10.671-3.297-2.371-2.256-3.557-5.321-3.557-9.196 0-6.883 1.706-12.262 5.119-16.137 3.412-3.933 7.981-5.9 13.707-5.9Zm8.85 8.763c0-1.909-.579-3.47-1.735-4.685-1.099-1.273-2.777-1.909-5.032-1.909-2.198 0-4.367 1.33-6.507 3.991-2.083 2.66-3.471 6.594-4.165 11.8 11.626-.059 17.439-3.124 17.439-9.197Z"/></svg>
