<svg xmlns="http://www.w3.org/2000/svg" fill="none" viewBox="0 0 19 55"><path fill="#202020" d="M15.634 51.149c-1.735 2.082-3.904 3.123-6.506 3.123-2.603 0-4.656-.665-6.16-1.995-1.446-1.33-2.17-3.066-2.17-5.206 0-.752.464-3.904 1.389-9.457l2.863-15.53H1.406l.174-1.56h3.73c4.28 0 7.433-.174 9.457-.521l1.215-.26-5.987 32.794c1.735-.174 3.181-.983 4.338-2.43l1.301 1.042ZM8 11.413C6.785 10.2 6.178 8.724 6.178 6.99c0-1.735.607-3.21 1.822-4.425C9.214 1.292 10.69.656 12.424.656c1.736 0 3.21.636 4.425 1.908 1.273 1.215 1.909 2.69 1.909 4.425 0 1.735-.636 3.21-1.909 4.425-1.215 1.214-2.69 1.821-4.425 1.821-1.735 0-3.21-.607-4.424-1.821Z"/></svg>
