<svg width="101" height="152" viewBox="0 0 101 152" fill="none" xmlns="http://www.w3.org/2000/svg">
<path d="M35.65 104.65L27.37 149.04H0L25.99 4.6C21.39 5.06 17.5567 7.20667 14.49 11.04L11.04 8.27999C15.64 2.76 21.39 0 28.29 0C35.3433 0 40.7867 1.76333 44.62 5.29C48.4533 8.81666 50.37 13.8 50.37 20.24C50.37 21.4667 50.2167 23.46 49.91 26.22C46.3833 45.6933 42.55 66.7 38.41 89.24C42.2433 79.8867 47.7633 72.6033 54.97 67.39C62.1767 62.1767 69.8433 59.57 77.97 59.57C86.0967 59.57 91.77 61.18 94.99 64.4C98.3633 67.62 100.05 71.6833 100.05 76.59C100.05 81.3433 98.5933 85.2533 95.68 88.32C92.7667 91.3867 88.9333 92.92 84.18 92.92C79.58 92.92 75.9767 91.6167 73.37 89.01C70.9167 86.25 69.69 82.2633 69.69 77.05C69.69 71.6833 71.53 67.62 75.21 64.86C60.49 66.5467 48.76 77.4333 40.02 97.52C42.1667 97.2133 44.0067 97.06 45.54 97.06C53.6667 97.06 60.03 98.67 64.63 101.89C69.3833 105.11 72.45 109.097 73.83 113.85C75.21 118.45 76.2067 123.127 76.82 127.88C77.4333 132.48 78.43 136.39 79.81 139.61C81.19 142.83 83.6433 144.44 87.17 144.44C90.6967 144.44 93.4567 142.983 95.45 140.07L98.9 142.83C97.8267 144.977 95.45 146.893 91.77 148.58C88.09 150.267 83.3367 151.11 77.51 151.11C71.8367 151.11 66.7767 149.653 62.33 146.74C58.0367 143.827 55.0467 140.223 53.36 135.93C51.6733 131.483 50.2933 127.113 49.22 122.82C46.3067 111.78 41.7833 105.723 35.65 104.65Z" fill="#F2F2F2"/>
</svg>
