<svg width="39" height="58" viewBox="0 0 39 58" fill="none" xmlns="http://www.w3.org/2000/svg">
<path d="M13.717 39.7469L10.5937 56.4911H0.269531L10.0732 2.00713C8.33801 2.18065 6.89206 2.99039 5.73528 4.43635L4.43391 3.39525C6.16907 1.31306 8.33801 0.271973 10.9408 0.271973C13.6013 0.271973 15.6546 0.937114 17.1006 2.2674C18.5465 3.59769 19.2695 5.47745 19.2695 7.90668C19.2695 8.36938 19.2117 9.12128 19.096 10.1624C17.7657 17.5079 16.3198 25.4318 14.7581 33.9341C16.2041 30.4059 18.2863 27.6586 21.0047 25.6921C23.7231 23.7255 26.615 22.7423 29.6805 22.7423C32.7459 22.7423 34.886 23.3496 36.1006 24.5642C37.373 25.7788 38.0093 27.3115 38.0093 29.1624C38.0093 30.9554 37.4598 32.4303 36.3609 33.587C35.2619 34.7438 33.8159 35.3222 32.0229 35.3222C30.2878 35.3222 28.9286 34.8306 27.9453 33.8473C27.0199 32.8062 26.5572 31.3024 26.5572 29.3359C26.5572 27.3115 27.2513 25.7788 28.6394 24.7377C23.0869 25.374 18.6622 29.4805 15.3654 37.0574C16.1752 36.9417 16.8692 36.8838 17.4476 36.8838C20.5131 36.8838 22.9134 37.4911 24.6485 38.7058C26.4415 39.9204 27.5983 41.4242 28.1188 43.2172C28.6394 44.9523 29.0153 46.7164 29.2467 48.5094C29.4781 50.2446 29.854 51.7195 30.3745 52.9341C30.8951 54.1487 31.8205 54.756 33.1508 54.756C34.4811 54.756 35.5222 54.2065 36.2741 53.1076L37.5754 54.1487C37.1706 54.9584 36.2741 55.6814 34.886 56.3176C33.4978 56.9539 31.7048 57.272 29.507 57.272C27.3669 57.272 25.4583 56.7225 23.7809 55.6236C22.1615 54.5246 21.0336 53.1654 20.3974 51.5459C19.7612 49.8686 19.2406 48.2202 18.8357 46.6007C17.7368 42.4364 16.0306 40.1517 13.717 39.7469Z" fill="#202020"/>
</svg>
