<svg width="25" height="58" viewBox="0 0 25 58" fill="none" xmlns="http://www.w3.org/2000/svg">
<path d="M15.9426 53.3679C15.1907 54.3511 14.1496 55.2476 12.8193 56.0574C11.5469 56.8671 9.86955 57.272 7.78735 57.272C5.70516 57.272 3.94108 56.6068 2.49511 55.2765C1.04915 53.9463 0.326172 52.0665 0.326172 49.6373C0.326172 49.1746 0.384006 48.4227 0.499683 47.3816L6.13895 16.1487C7.18005 10.4227 8.5971 6.34503 10.3901 3.91581C12.2409 1.48658 14.6702 0.271973 17.6778 0.271973C19.76 0.271973 21.4662 1.0528 22.7965 2.61444C24.1846 4.17608 24.8787 6.54747 24.8787 9.72859C24.8787 12.9097 23.6351 17.4501 21.1481 23.3496C18.7189 29.2491 17.5043 33.5581 17.5043 36.2765H15.9426C15.9426 33.2111 17.1572 28.8443 19.5864 23.1761C22.0157 17.4501 23.2303 12.8808 23.2303 9.46832C23.2303 7.38613 22.7387 5.59313 21.7554 4.08932C20.83 2.58551 19.6732 1.83361 18.2851 1.83361C18.2272 3.33742 17.2151 10.1045 15.2485 22.135C13.3399 34.1076 11.4312 45.2415 9.52251 55.5368C11.142 55.5368 12.6458 54.6981 14.0339 53.0208C15.4221 51.3435 16.4053 49.6662 16.9837 47.9889L17.938 45.3861L19.4997 46.0802C19.3262 46.8899 18.8635 48.0756 18.1116 49.6373C17.4175 51.1411 16.6945 52.3846 15.9426 53.3679Z" fill="#202020"/>
</svg>
