<svg width="286" height="74" viewBox="0 0 286 74" fill="none" xmlns="http://www.w3.org/2000/svg">
<path d="M33 56.264C34.408 56.264 35.8747 55.4427 37.4 53.8L38.72 54.856C38.3093 55.6773 37.4 56.4107 35.992 57.056C34.584 57.7013 33.0293 58.024 31.328 58.024C25.9893 58.024 23.32 55.6187 23.32 50.808C23.32 48.7547 23.848 45.088 24.904 39.808C25.96 34.528 26.488 31.0667 26.488 29.424C26.488 26.9013 25.2853 25.64 22.88 25.64C19.2427 25.64 16.192 30.304 13.728 39.632L10.56 57.232H0L5.808 24.76C4.048 24.936 2.58133 25.7573 1.408 27.224L0.0879995 26.168C1.848 24.056 4.048 23 6.688 23C9.38667 23 11.4693 23.6747 12.936 25.024C14.4027 26.3733 15.136 28.28 15.136 30.744V31.008C17.424 25.6693 20.8853 23 25.52 23C28.8053 23 31.3867 23.9093 33.264 25.728C35.2 27.488 36.256 29.9813 36.432 33.208C37.5467 29.9813 38.9547 27.488 40.656 25.728C42.3573 23.9093 44.8213 23 48.048 23C51.2747 23 53.856 23.9973 55.792 25.992C57.728 27.928 58.696 30.6267 58.696 34.088C58.696 35.9067 58.1387 39.4267 57.024 44.648C55.9093 49.8107 55.2933 53.6827 55.176 56.264C56.584 56.264 58.0507 55.4427 59.576 53.8L60.896 54.856C60.4853 55.6773 59.576 56.4107 58.168 57.056C56.76 57.7013 55.2053 58.024 53.504 58.024C48.1653 58.024 45.496 55.6187 45.496 50.808C45.496 48.7547 46.024 45.088 47.08 39.808C48.136 34.528 48.664 31.0667 48.664 29.424C48.664 26.9013 47.4613 25.64 45.056 25.64C40.832 25.64 37.4293 31.9173 34.848 44.472C33.7333 49.8107 33.1173 53.7413 33 56.264Z" fill="black"/>
<path d="M96.064 58.024C90.9013 58.024 88.0853 55.7653 87.616 51.248C85.0347 55.7653 81.7787 58.024 77.848 58.024C73.9173 58.024 70.7787 56.8507 68.432 54.504C66.144 52.0987 65 48.7547 65 44.472C65 37.784 66.6427 32.5333 69.928 28.72C73.2133 24.9067 77.4667 23 82.688 23C86.9707 23 89.816 25.024 91.224 29.072C91.5173 27.312 91.84 25.552 92.192 23.792C96.5333 23.792 99.76 23.616 101.872 23.264L103.016 23L96.944 56.264C98.704 56.088 100.171 55.2667 101.344 53.8L102.664 54.856C100.904 56.968 98.704 58.024 96.064 58.024ZM74.944 48.96C74.944 51.6 75.2667 53.448 75.912 54.504C76.616 55.5013 77.672 56 79.08 56C80.488 56 81.9253 55.2373 83.392 53.712C85.328 51.7173 86.8827 49.1947 88.056 46.144C88.232 45.3813 88.5547 43.5627 89.024 40.688C89.552 37.7547 89.992 35.3493 90.344 33.472C90.168 31.2427 89.552 29.3067 88.496 27.664C87.44 26.0213 86.12 25.2 84.536 25.2C81.6613 25.2 79.344 27.7813 77.584 32.944C75.824 38.048 74.944 43.3867 74.944 48.96Z" fill="black"/>
<path d="M112.808 24.76C111.4 24.76 109.933 25.5813 108.408 27.224L107.088 26.168C107.499 25.3467 108.408 24.6133 109.816 23.968C111.224 23.3227 112.779 23 114.48 23C119.819 23 122.488 25.4053 122.488 30.216C122.488 32.2693 121.931 35.6427 120.816 40.336C119.701 44.9707 119.144 48.1093 119.144 49.752C119.144 52.568 120.317 53.976 122.664 53.976C124.6 53.976 126.477 52.656 128.296 50.016C130.173 47.376 131.699 43.8267 132.872 39.368L135.776 23.792C140.117 23.792 143.285 23.616 145.28 23.264L146.424 23L140.88 54.152C139.824 60.1947 137.36 64.9173 133.488 68.32C129.675 71.7227 124.717 73.424 118.616 73.424C114.92 73.424 112.045 72.7787 109.992 71.488C107.997 70.256 107 68.6133 107 66.56C107 64.5653 107.616 62.952 108.848 61.72C110.08 60.5467 111.811 59.96 114.04 59.96C116.328 59.96 118.44 60.312 120.376 61.016C122.312 61.7787 123.72 62.2187 124.6 62.336L124.424 63.92C123.427 63.8027 121.989 63.392 120.112 62.688C118.235 61.984 116.357 61.632 114.48 61.632C112.661 61.632 111.253 62.0427 110.256 62.864C109.317 63.6853 108.848 64.8587 108.848 66.384C108.848 67.968 109.699 69.2293 111.4 70.168C113.101 71.1653 115.213 71.664 117.736 71.664C123.837 71.664 127.592 67.9973 129 60.664L131.2 48.52C128.736 53.9173 125.011 56.616 120.024 56.616C116.621 56.616 113.981 55.648 112.104 53.712C110.285 51.776 109.376 49.048 109.376 45.528C109.376 43.7093 109.904 40.4533 110.96 35.76C112.075 31.008 112.691 27.3413 112.808 24.76Z" fill="black"/>
<path d="M184.84 53.856C184.077 54.8533 183.021 55.7627 181.672 56.584C180.381 57.4053 178.68 57.816 176.568 57.816C174.456 57.816 172.667 57.1413 171.2 55.792C169.733 54.4427 169 52.536 169 50.072C169 49.6027 169.059 48.84 169.176 47.784L174.896 16.104C175.952 10.296 177.389 6.16 179.208 3.696C181.085 1.232 183.549 0 186.6 0C188.712 0 190.443 0.791999 191.792 2.376C193.2 3.96 193.904 6.36533 193.904 9.592C193.904 12.8187 192.643 17.424 190.12 23.408C187.656 29.392 186.424 33.7627 186.424 36.52H184.84C184.84 33.4107 186.072 28.9813 188.536 23.232C191 17.424 192.232 12.7893 192.232 9.328C192.232 7.216 191.733 5.39733 190.736 3.872C189.797 2.34666 188.624 1.584 187.216 1.584C187.157 3.10933 186.131 9.97333 184.136 22.176C182.2 34.32 180.264 45.6133 178.328 56.056C179.971 56.056 181.496 55.2053 182.904 53.504C184.312 51.8027 185.309 50.1013 185.896 48.4L186.864 45.76L188.448 46.464C188.272 47.2853 187.803 48.488 187.04 50.072C186.336 51.5973 185.603 52.8587 184.84 53.856Z" fill="black"/>
<path d="M209.048 55.216C207.288 57.328 205.088 58.384 202.448 58.384C199.808 58.384 197.725 57.7093 196.2 56.36C194.733 55.0107 194 53.2507 194 51.08C194 50.3173 194.469 47.12 195.408 41.488L198.312 25.736H194.616L194.792 24.152H198.576C202.917 24.152 206.115 23.976 208.168 23.624L209.4 23.36L203.328 56.624C205.088 56.448 206.555 55.6267 207.728 54.16L209.048 55.216ZM201.304 14.912C200.072 13.68 199.456 12.184 199.456 10.424C199.456 8.664 200.072 7.168 201.304 5.936C202.536 4.64533 204.032 4 205.792 4C207.552 4 209.048 4.64533 210.28 5.936C211.571 7.168 212.216 8.664 212.216 10.424C212.216 12.184 211.571 13.68 210.28 14.912C209.048 16.144 207.552 16.76 205.792 16.76C204.032 16.76 202.536 16.144 201.304 14.912Z" fill="black"/>
<path d="M226.64 40.04L223.472 57.024H213L222.944 1.76C221.184 1.936 219.717 2.75733 218.544 4.224L217.224 3.168C218.984 1.056 221.184 0 223.824 0C226.523 0 228.605 0.674667 230.072 2.024C231.539 3.37333 232.272 5.28 232.272 7.744C232.272 8.21333 232.213 8.976 232.096 10.032C230.747 17.4827 229.28 25.52 227.696 34.144C229.163 30.5653 231.275 27.7787 234.032 25.784C236.789 23.7893 239.723 22.792 242.832 22.792C245.941 22.792 248.112 23.408 249.344 24.64C250.635 25.872 251.28 27.4267 251.28 29.304C251.28 31.1227 250.723 32.6187 249.608 33.792C248.493 34.9653 247.027 35.552 245.208 35.552C243.448 35.552 242.069 35.0533 241.072 34.056C240.133 33 239.664 31.4747 239.664 29.48C239.664 27.4267 240.368 25.872 241.776 24.816C236.144 25.4613 231.656 29.6267 228.312 37.312C229.133 37.1947 229.837 37.136 230.424 37.136C233.533 37.136 235.968 37.752 237.728 38.984C239.547 40.216 240.72 41.7413 241.248 43.56C241.776 45.32 242.157 47.1093 242.392 48.928C242.627 50.688 243.008 52.184 243.536 53.416C244.064 54.648 245.003 55.264 246.352 55.264C247.701 55.264 248.757 54.7067 249.52 53.592L250.84 54.648C250.429 55.4693 249.52 56.2027 248.112 56.848C246.704 57.4933 244.885 57.816 242.656 57.816C240.485 57.816 238.549 57.2587 236.848 56.144C235.205 55.0293 234.061 53.6507 233.416 52.008C232.771 50.3067 232.243 48.6347 231.832 46.992C230.717 42.768 228.987 40.4507 226.64 40.04Z" fill="black"/>
<path d="M274.096 23C281.547 23 285.272 25.9627 285.272 31.888C285.272 35.584 283.512 38.4 279.992 40.336C276.531 42.2133 271.573 43.1813 265.12 43.24C265.003 45.352 264.944 47.024 264.944 48.256C264.944 50.896 265.531 52.8613 266.704 54.152C267.936 55.384 269.461 56 271.28 56C273.099 56 274.741 55.648 276.208 54.944C277.733 54.24 278.936 53.4187 279.816 52.48C280.696 51.4827 281.459 50.456 282.104 49.4C283.277 47.464 283.864 46.232 283.864 45.704L285.448 46.408C285.272 47.3467 284.744 48.608 283.864 50.192C282.984 51.7173 282.016 52.9787 280.96 53.976C279.904 54.9733 278.349 55.912 276.296 56.792C274.243 57.6133 271.955 58.024 269.432 58.024C264.68 58.024 261.072 56.9093 258.608 54.68C256.203 52.392 255 49.2827 255 45.352C255 38.3707 256.731 32.9147 260.192 28.984C263.653 24.9947 268.288 23 274.096 23ZM283.072 31.888C283.072 29.952 282.485 28.368 281.312 27.136C280.197 25.8453 278.496 25.2 276.208 25.2C273.979 25.2 271.779 26.5493 269.608 29.248C267.496 31.9467 266.088 35.936 265.384 41.216C277.176 41.1573 283.072 38.048 283.072 31.888Z" fill="black"/>
</svg>
