<svg width="540" height="1080" viewBox="0 0 540 1080" fill="none" xmlns="http://www.w3.org/2000/svg">
<path opacity="0.1" d="M341.264 1077.23C324.736 1098.62 301.903 1118.08 272.764 1135.62C244.887 1153.17 208.213 1161.83 162.741 1161.6C117.27 1161.37 78.8175 1146.66 47.3846 1117.45C15.9516 1088.24 0.367283 1047.11 0.631463 994.058C0.681784 983.954 2.02666 967.54 4.66608 944.816L131.215 263.354C154.574 138.42 185.963 49.5253 225.384 -3.33006C266.067 -56.1791 319.25 -82.4401 384.931 -82.113C430.403 -81.8866 467.579 -64.6491 496.461 -30.4007C526.606 3.85401 540.17 55.7101 539.824 125.181C539.478 194.651 513.162 293.676 458.207 422.242C404.516 550.815 377.522 644.784 377.226 704.15L343.122 703.98C343.456 637.035 370.456 541.803 424.122 418.283C477.796 293.5 504.818 193.847 505.189 119.324C505.415 73.8525 494.874 34.6428 473.565 1.6952C453.518 -31.2461 428.338 -47.7923 398.024 -47.9433C396.597 -15.1089 373.757 132.564 329.503 395.076C286.519 656.33 243.625 899.27 200.823 1123.9C236.19 1124.07 269.122 1105.92 299.619 1069.44C330.116 1032.96 351.771 996.439 364.584 959.871L385.709 903.136L419.737 918.463C415.86 936.127 405.626 961.971 389.036 995.993C373.715 1028.76 357.791 1055.84 341.264 1077.23Z" fill="#D7D7D7"/>
</svg>
