<svg xmlns="http://www.w3.org/2000/svg" viewBox="0 0 2853 220" fill="none"><g fill="#C2C2C2" opacity=".1"><path d="M140.756 2.384c19.137 0 35.034 5.71 47.69 17.132 12.964 11.42 19.601 25.928 19.909 43.523v151.405h-64.821V87.116c-.926-19.756-10.804-29.633-29.633-29.633-14.816 0-26.7 6.945-35.652 20.835-8.952 13.89-13.427 31.794-13.427 53.71v82.416H0V12.108h58.803l4.63 32.41C70.84 31.246 81.027 20.906 93.99 13.498c13.273-7.408 28.861-11.113 46.765-11.113ZM460.494 12.108v202.336h-64.822v-25.003C376.226 209.814 353.693 220 328.073 220c-29.942 0-54.327-8.952-73.156-26.855-18.521-17.903-27.781-44.449-27.781-79.638 0-22.224 4.476-41.67 13.427-58.34 9.261-16.976 21.453-30.095 36.578-39.355 15.125-9.26 31.331-13.89 48.616-13.89 17.904 0 32.103 2.777 42.598 8.334 10.495 5.247 19.755 12.81 27.78 22.687l4.167-20.835h60.192ZM346.593 167.217c22.533 0 38.893-10.187 49.079-30.559V87.116c-3.704-9.878-10.186-17.75-19.446-23.614-8.952-5.865-19.601-8.797-31.948-8.797-14.199 0-26.392 5.247-36.578 15.742-9.878 10.495-14.816 23.768-14.816 39.819 0 10.495 2.469 20.218 7.408 29.17 4.939 8.643 11.421 15.434 19.446 20.372 8.335 4.939 17.286 7.409 26.855 7.409Z"/><path d="M140.756 2.384c19.137 0 35.034 5.71 47.69 17.132 12.964 11.42 19.601 25.928 19.909 43.523v151.405h-64.821V87.116c-.926-19.756-10.804-29.633-29.633-29.633-14.816 0-26.7 6.945-35.652 20.835-8.952 13.89-13.427 31.794-13.427 53.71v82.416H0V12.108h58.803l4.63 32.41C70.84 31.246 81.027 20.906 93.99 13.498c13.273-7.408 28.861-11.113 46.765-11.113ZM460.494 12.108v202.336h-64.822v-25.003C376.226 209.814 353.693 220 328.073 220c-29.942 0-54.327-8.952-73.156-26.855-18.521-17.903-27.781-44.449-27.781-79.638 0-22.224 4.476-41.67 13.427-58.34 9.261-16.976 21.453-30.095 36.578-39.355 15.125-9.26 31.331-13.89 48.616-13.89 17.904 0 32.103 2.777 42.598 8.334 10.495 5.247 19.755 12.81 27.78 22.687l4.167-20.835h60.192ZM346.593 167.217c22.533 0 38.893-10.187 49.079-30.559V87.116c-3.704-9.878-10.186-17.75-19.446-23.614-8.952-5.865-19.601-8.797-31.948-8.797-14.199 0-26.392 5.247-36.578 15.742-9.878 10.495-14.816 23.768-14.816 39.819 0 10.495 2.469 20.218 7.408 29.17 4.939 8.643 11.421 15.434 19.446 20.372 8.335 4.939 17.286 7.409 26.855 7.409ZM619.469 2.384c19.138 0 35.034 5.71 47.69 17.132 12.964 11.42 19.601 25.928 19.909 43.523v151.405h-64.821V87.116c-.926-19.756-10.804-29.633-29.633-29.633-14.816 0-26.7 6.945-35.652 20.835-8.951 13.89-13.427 31.794-13.427 53.71v82.416h-64.822V12.108h58.803l4.63 32.41c7.408-13.273 17.594-23.613 30.559-31.021 13.273-7.408 28.861-11.113 46.764-11.113ZM939.207 12.108v202.336h-64.822v-25.003C854.939 209.814 832.406 220 806.786 220c-29.942 0-54.327-8.952-73.156-26.855-18.521-17.903-27.781-44.449-27.781-79.638 0-22.224 4.476-41.67 13.427-58.34 9.261-16.976 21.453-30.095 36.578-39.355 15.125-9.26 31.331-13.89 48.617-13.89 17.903 0 32.102 2.777 42.597 8.334 10.495 5.247 19.755 12.81 27.78 22.687l4.168-20.835h60.191ZM825.306 167.217c22.533 0 38.893-10.187 49.079-30.559V87.116c-3.704-9.878-10.186-17.75-19.446-23.614-8.952-5.865-19.601-8.797-31.948-8.797-14.199 0-26.392 5.247-36.578 15.742-9.877 10.495-14.816 23.768-14.816 39.819 0 10.495 2.469 20.218 7.408 29.17 4.939 8.643 11.421 15.434 19.446 20.372 8.335 4.939 17.286 7.409 26.855 7.409Z"/><path d="M619.469 2.384c19.138 0 35.034 5.71 47.69 17.132 12.964 11.42 19.601 25.928 19.909 43.523v151.405h-64.821V87.116c-.926-19.756-10.804-29.633-29.633-29.633-14.816 0-26.7 6.945-35.652 20.835-8.951 13.89-13.427 31.794-13.427 53.71v82.416h-64.822V12.108h58.803l4.63 32.41c7.408-13.273 17.594-23.613 30.559-31.021 13.273-7.408 28.861-11.113 46.764-11.113ZM939.207 12.108v202.336h-64.822v-25.003C854.939 209.814 832.406 220 806.786 220c-29.942 0-54.327-8.952-73.156-26.855-18.521-17.903-27.781-44.449-27.781-79.638 0-22.224 4.476-41.67 13.427-58.34 9.261-16.976 21.453-30.095 36.578-39.355 15.125-9.26 31.331-13.89 48.617-13.89 17.903 0 32.102 2.777 42.597 8.334 10.495 5.247 19.755 12.81 27.78 22.687l4.168-20.835h60.191ZM825.306 167.217c22.533 0 38.893-10.187 49.079-30.559V87.116c-3.704-9.878-10.186-17.75-19.446-23.614-8.952-5.865-19.601-8.797-31.948-8.797-14.199 0-26.392 5.247-36.578 15.742-9.877 10.495-14.816 23.768-14.816 39.819 0 10.495 2.469 20.218 7.408 29.17 4.939 8.643 11.421 15.434 19.446 20.372 8.335 4.939 17.286 7.409 26.855 7.409ZM1097.9.463c19.13 0 35.03 5.71 47.69 17.131 12.96 11.421 19.6 25.93 19.91 43.524v151.404h-64.83V85.194c-.92-19.755-10.8-29.633-29.63-29.633-14.81 0-26.7 6.946-35.65 20.836-8.95 13.89-13.43 31.793-13.43 53.709v82.416h-64.819V10.186h58.799l4.63 32.411c7.41-13.273 17.6-23.614 30.56-31.022C1064.41 4.167 1079.99.463 1097.9.463ZM1417.63 10.186v202.336h-64.82V187.52c-19.44 20.372-41.98 30.559-67.6 30.559-29.94 0-54.32-8.952-73.15-26.855-18.52-17.903-27.78-44.449-27.78-79.638 0-22.225 4.47-41.671 13.42-58.34 9.26-16.977 21.46-30.095 36.58-39.356C1249.41 4.63 1265.61 0 1282.9 0c17.9 0 32.1 2.778 42.6 8.334 10.49 5.248 19.75 12.81 27.78 22.688l4.16-20.836h60.19Zm-113.9 155.109c22.54 0 38.9-10.186 49.08-30.559V85.194c-3.7-9.877-10.18-17.749-19.44-23.613-8.96-5.865-19.6-8.798-31.95-8.798-14.2 0-26.39 5.248-36.58 15.743-9.88 10.495-14.82 23.768-14.82 39.819 0 10.495 2.47 20.218 7.41 29.17 4.94 8.642 11.42 15.433 19.45 20.372 8.33 4.939 17.28 7.408 26.85 7.408Z"/><path d="M1097.9.463c19.13 0 35.03 5.71 47.69 17.131 12.96 11.421 19.6 25.93 19.91 43.524v151.404h-64.83V85.194c-.92-19.755-10.8-29.633-29.63-29.633-14.81 0-26.7 6.946-35.65 20.836-8.95 13.89-13.43 31.793-13.43 53.709v82.416h-64.819V10.186h58.799l4.63 32.411c7.41-13.273 17.6-23.614 30.56-31.022C1064.41 4.167 1079.99.463 1097.9.463ZM1417.63 10.186v202.336h-64.82V187.52c-19.44 20.372-41.98 30.559-67.6 30.559-29.94 0-54.32-8.952-73.15-26.855-18.52-17.903-27.78-44.449-27.78-79.638 0-22.225 4.47-41.671 13.42-58.34 9.26-16.977 21.46-30.095 36.58-39.356C1249.41 4.63 1265.61 0 1282.9 0c17.9 0 32.1 2.778 42.6 8.334 10.49 5.248 19.75 12.81 27.78 22.688l4.16-20.836h60.19Zm-113.9 155.109c22.54 0 38.9-10.186 49.08-30.559V85.194c-3.7-9.877-10.18-17.749-19.44-23.613-8.96-5.865-19.6-8.798-31.95-8.798-14.2 0-26.39 5.248-36.58 15.743-9.88 10.495-14.82 23.768-14.82 39.819 0 10.495 2.47 20.218 7.41 29.17 4.94 8.642 11.42 15.433 19.45 20.372 8.33 4.939 17.28 7.408 26.85 7.408ZM2054.75.463c19.14 0 35.04 5.71 47.69 17.131 12.97 11.421 19.6 25.93 19.91 43.524v151.404h-64.82V85.194c-.93-19.755-10.8-29.633-29.63-29.633-14.82 0-26.7 6.946-35.65 20.836-8.96 13.89-13.43 31.793-13.43 53.709v82.416H1914V10.186h58.8l4.63 32.411c7.41-13.273 17.59-23.614 30.56-31.022 13.27-7.408 28.86-11.112 46.76-11.112ZM2374.49 10.186v202.336h-64.82V187.52c-19.45 20.372-41.98 30.559-67.6 30.559-29.94 0-54.33-8.952-73.16-26.855-18.52-17.903-27.78-44.449-27.78-79.638 0-22.225 4.48-41.671 13.43-58.34 9.26-16.977 21.45-30.095 36.58-39.356C2206.26 4.63 2222.47 0 2239.75 0c17.91 0 32.11 2.778 42.6 8.334 10.5 5.248 19.76 12.81 27.78 22.688l4.17-20.836h60.19Zm-113.9 155.109c22.53 0 38.89-10.186 49.08-30.559V85.194c-3.7-9.877-10.19-17.749-19.45-23.613-8.95-5.865-19.6-8.798-31.95-8.798-14.19 0-26.39 5.248-36.57 15.743-9.88 10.495-14.82 23.768-14.82 39.819 0 10.495 2.47 20.218 7.41 29.17 4.94 8.642 11.42 15.433 19.45 20.372 8.33 4.939 17.28 7.408 26.85 7.408Z"/><path d="M2054.75.463c19.14 0 35.04 5.71 47.69 17.131 12.97 11.421 19.6 25.93 19.91 43.524v151.404h-64.82V85.194c-.93-19.755-10.8-29.633-29.63-29.633-14.82 0-26.7 6.946-35.65 20.836-8.96 13.89-13.43 31.793-13.43 53.709v82.416H1914V10.186h58.8l4.63 32.411c7.41-13.273 17.59-23.614 30.56-31.022 13.27-7.408 28.86-11.112 46.76-11.112ZM2374.49 10.186v202.336h-64.82V187.52c-19.45 20.372-41.98 30.559-67.6 30.559-29.94 0-54.33-8.952-73.16-26.855-18.52-17.903-27.78-44.449-27.78-79.638 0-22.225 4.48-41.671 13.43-58.34 9.26-16.977 21.45-30.095 36.58-39.356C2206.26 4.63 2222.47 0 2239.75 0c17.91 0 32.11 2.778 42.6 8.334 10.5 5.248 19.76 12.81 27.78 22.688l4.17-20.836h60.19Zm-113.9 155.109c22.53 0 38.89-10.186 49.08-30.559V85.194c-3.7-9.877-10.19-17.749-19.45-23.613-8.95-5.865-19.6-8.798-31.95-8.798-14.19 0-26.39 5.248-36.57 15.743-9.88 10.495-14.82 23.768-14.82 39.819 0 10.495 2.47 20.218 7.41 29.17 4.94 8.642 11.42 15.433 19.45 20.372 8.33 4.939 17.28 7.408 26.85 7.408ZM1576.33.463c19.13 0 35.03 5.71 47.69 17.131 12.96 11.421 19.6 25.93 19.91 43.524v151.404h-64.83V85.194c-.92-19.755-10.8-29.633-29.63-29.633-14.82 0-26.7 6.946-35.65 20.836-8.95 13.89-13.43 31.793-13.43 53.709v82.416h-64.82V10.186h58.8l4.63 32.411c7.41-13.273 17.6-23.614 30.56-31.022 13.27-7.408 28.86-11.112 46.77-11.112ZM1896.06 10.186v202.336h-64.82V187.52c-19.44 20.372-41.98 30.559-67.6 30.559-29.94 0-54.32-8.952-73.15-26.855-18.52-17.903-27.78-44.449-27.78-79.638 0-22.225 4.47-41.671 13.42-58.34 9.26-16.977 21.46-30.095 36.58-39.356C1727.84 4.63 1744.04 0 1761.33 0c17.9 0 32.1 2.778 42.59 8.334 10.5 5.248 19.76 12.81 27.79 22.688l4.16-20.836h60.19Zm-113.9 155.109c22.54 0 38.9-10.186 49.08-30.559V85.194c-3.7-9.877-10.18-17.749-19.44-23.613-8.96-5.865-19.6-8.798-31.95-8.798-14.2 0-26.39 5.248-36.58 15.743-9.88 10.495-14.82 23.768-14.82 39.819 0 10.495 2.47 20.218 7.41 29.17 4.94 8.642 11.42 15.433 19.45 20.372 8.33 4.939 17.28 7.408 26.85 7.408Z"/><path d="M1576.33.463c19.13 0 35.03 5.71 47.69 17.131 12.96 11.421 19.6 25.93 19.91 43.524v151.404h-64.83V85.194c-.92-19.755-10.8-29.633-29.63-29.633-14.82 0-26.7 6.946-35.65 20.836-8.95 13.89-13.43 31.793-13.43 53.709v82.416h-64.82V10.186h58.8l4.63 32.411c7.41-13.273 17.6-23.614 30.56-31.022 13.27-7.408 28.86-11.112 46.77-11.112ZM1896.06 10.186v202.336h-64.82V187.52c-19.44 20.372-41.98 30.559-67.6 30.559-29.94 0-54.32-8.952-73.15-26.855-18.52-17.903-27.78-44.449-27.78-79.638 0-22.225 4.47-41.671 13.42-58.34 9.26-16.977 21.46-30.095 36.58-39.356C1727.84 4.63 1744.04 0 1761.33 0c17.9 0 32.1 2.778 42.59 8.334 10.5 5.248 19.76 12.81 27.79 22.688l4.16-20.836h60.19Zm-113.9 155.109c22.54 0 38.9-10.186 49.08-30.559V85.194c-3.7-9.877-10.18-17.749-19.44-23.613-8.96-5.865-19.6-8.798-31.95-8.798-14.2 0-26.39 5.248-36.58 15.743-9.88 10.495-14.82 23.768-14.82 39.819 0 10.495 2.47 20.218 7.41 29.17 4.94 8.642 11.42 15.433 19.45 20.372 8.33 4.939 17.28 7.408 26.85 7.408ZM2533.18.463c19.14 0 35.04 5.71 47.69 17.131 12.97 11.421 19.6 25.93 19.91 43.524v151.404h-64.82V85.194c-.93-19.755-10.8-29.633-29.63-29.633-14.82 0-26.7 6.946-35.66 20.836-8.95 13.89-13.42 31.793-13.42 53.709v82.416h-64.82V10.186h58.8l4.63 32.411c7.41-13.273 17.59-23.614 30.56-31.022 13.27-7.408 28.86-11.112 46.76-11.112ZM2852.92 10.186v202.336h-64.82V187.52c-19.45 20.372-41.98 30.559-67.6 30.559-29.94 0-54.33-8.952-73.16-26.855-18.52-17.903-27.78-44.449-27.78-79.638 0-22.225 4.48-41.671 13.43-58.34 9.26-16.977 21.45-30.095 36.58-39.356C2684.69 4.63 2700.9 0 2718.18 0c17.91 0 32.1 2.778 42.6 8.334 10.49 5.248 19.75 12.81 27.78 22.688l4.17-20.836h60.19Zm-113.9 155.109c22.53 0 38.89-10.186 49.08-30.559V85.194c-3.71-9.877-10.19-17.749-19.45-23.613-8.95-5.865-19.6-8.798-31.95-8.798-14.2 0-26.39 5.248-36.58 15.743-9.87 10.495-14.81 23.768-14.81 39.819 0 10.495 2.47 20.218 7.41 29.17 4.94 8.642 11.42 15.433 19.44 20.372 8.34 4.939 17.29 7.408 26.86 7.408Z"/><path d="M2533.18.463c19.14 0 35.04 5.71 47.69 17.131 12.97 11.421 19.6 25.93 19.91 43.524v151.404h-64.82V85.194c-.93-19.755-10.8-29.633-29.63-29.633-14.82 0-26.7 6.946-35.66 20.836-8.95 13.89-13.42 31.793-13.42 53.709v82.416h-64.82V10.186h58.8l4.63 32.411c7.41-13.273 17.59-23.614 30.56-31.022 13.27-7.408 28.86-11.112 46.76-11.112ZM2852.92 10.186v202.336h-64.82V187.52c-19.45 20.372-41.98 30.559-67.6 30.559-29.94 0-54.33-8.952-73.16-26.855-18.52-17.903-27.78-44.449-27.78-79.638 0-22.225 4.48-41.671 13.43-58.34 9.26-16.977 21.45-30.095 36.58-39.356C2684.69 4.63 2700.9 0 2718.18 0c17.91 0 32.1 2.778 42.6 8.334 10.49 5.248 19.75 12.81 27.78 22.688l4.17-20.836h60.19Zm-113.9 155.109c22.53 0 38.89-10.186 49.08-30.559V85.194c-3.71-9.877-10.19-17.749-19.45-23.613-8.95-5.865-19.6-8.798-31.95-8.798-14.2 0-26.39 5.248-36.58 15.743-9.87 10.495-14.81 23.768-14.81 39.819 0 10.495 2.47 20.218 7.41 29.17 4.94 8.642 11.42 15.433 19.44 20.372 8.34 4.939 17.29 7.408 26.86 7.408Z"/></g></svg>
