<svg width="600" height="600" viewBox="0 0 600 600" fill="none" xmlns="http://www.w3.org/2000/svg">
<mask id="path-1-inside-1_560_1192" fill="white">
<rect width="600" height="600" rx="20"/>
</mask>
<rect width="600" height="600" rx="20" fill="white" stroke="#222222" stroke-width="50" mask="url(#path-1-inside-1_560_1192)"/>
<path d="M229.351 218.348C243.743 218.348 255.698 222.643 265.216 231.231C274.965 239.82 279.956 250.73 280.188 263.962V377.822H231.441V282.068C230.744 267.212 223.316 259.783 209.156 259.783C198.014 259.783 189.077 265.006 182.345 275.452C175.613 285.898 172.247 299.362 172.247 315.843V377.822H123.5V225.66H167.721L171.203 250.034C176.774 240.052 184.434 232.276 194.184 226.705C204.165 221.134 215.888 218.348 229.351 218.348Z" fill="#222222"/>
<path d="M476.483 225.66V377.822H427.736V359.019C413.111 374.34 396.166 382 376.899 382C354.383 382 336.044 375.268 321.884 361.805C307.956 348.341 300.993 328.378 300.993 301.915C300.993 285.202 304.358 270.577 311.09 258.042C318.054 245.275 327.223 235.41 338.598 228.446C349.972 221.482 362.159 218 375.158 218C388.622 218 399.3 220.089 407.192 224.268C415.085 228.214 422.048 233.901 428.084 241.329L431.218 225.66H476.483ZM390.827 342.306C407.772 342.306 420.075 334.645 427.736 319.325V282.068C424.95 274.64 420.075 268.72 413.111 264.31C406.38 259.9 398.371 257.694 389.086 257.694C378.408 257.694 369.239 261.64 361.579 269.533C354.15 277.425 350.436 287.407 350.436 299.478C350.436 307.37 352.293 314.682 356.007 321.414C359.722 327.914 364.596 333.021 370.632 336.735C376.899 340.449 383.631 342.306 390.827 342.306Z" fill="#222222"/>
</svg>
